<svg width="370" height="250" viewBox="0 0 370 250" fill="none" xmlns="http://www.w3.org/2000/svg">
<g filter="url(#filter0_d_475_344)">
<mask id="mask0_475_344" style="mask-type:alpha" maskUnits="userSpaceOnUse" x="25" y="13" width="320" height="200">
<path d="M324 13H46C34.402 13 25 22.402 25 34V192C25 203.598 34.402 213 46 213H324C335.598 213 345 203.598 345 192V34C345 22.402 335.598 13 324 13Z" fill="white"/>
</mask>
<g mask="url(#mask0_475_344)">
<path d="M324 13H46C34.402 13 25 22.402 25 34V192C25 203.598 34.402 213 46 213H324C335.598 213 345 203.598 345 192V34C345 22.402 335.598 13 324 13Z" fill="url(#paint0_linear_475_344)"/>
<path style="mix-blend-mode:soft-light" opacity="0.7" fill-rule="evenodd" clip-rule="evenodd" d="M339 -47C309.161 60.0943 270.129 131.579 221.905 167.453C173.68 203.327 102.379 218.01 8.00003 211.5V-47H339Z" fill="url(#paint1_linear_475_344)"/>
<g style="mix-blend-mode:overlay" opacity="0.4">
<path fill-rule="evenodd" clip-rule="evenodd" d="M419 -47C382.85 60.0943 335.564 131.579 277.141 167.453C218.718 203.327 132.338 218.01 18 211.5V-47H419Z" fill="url(#paint2_linear_475_344)" style="mix-blend-mode:soft-light"/>
</g>
<path style="mix-blend-mode:soft-light" opacity="0.6" fill-rule="evenodd" clip-rule="evenodd" d="M257.405 -83.3777C260.31 9.28046 244.376 77.8268 209.603 122.261C174.83 166.696 112.383 202.951 22.2624 231.027L-52.0959 32.6106L257.405 -83.3777Z" fill="url(#paint3_linear_475_344)"/>
</g>
<path d="M52.264 179.096C51.784 179.096 51.3413 178.984 50.936 178.76C50.5307 178.525 50.2107 178.205 49.976 177.8C49.752 177.395 49.64 176.941 49.64 176.44C49.64 175.939 49.752 175.491 49.976 175.096C50.2107 174.691 50.5253 174.376 50.92 174.152C51.3253 173.928 51.7733 173.816 52.264 173.816C52.7547 173.816 53.2027 173.928 53.608 174.152C54.0133 174.376 54.3333 174.691 54.568 175.096C54.8027 175.491 54.92 175.939 54.92 176.44C54.92 176.941 54.8027 177.395 54.568 177.8C54.3333 178.205 54.0133 178.525 53.608 178.76C53.2027 178.984 52.7547 179.096 52.264 179.096ZM64.2314 179.096C63.7514 179.096 63.3087 178.984 62.9034 178.76C62.498 178.525 62.178 178.205 61.9434 177.8C61.7194 177.395 61.6074 176.941 61.6074 176.44C61.6074 175.939 61.7194 175.491 61.9434 175.096C62.178 174.691 62.4927 174.376 62.8874 174.152C63.2927 173.928 63.7407 173.816 64.2314 173.816C64.722 173.816 65.17 173.928 65.5754 174.152C65.9807 174.376 66.3007 174.691 66.5354 175.096C66.77 175.491 66.8874 175.939 66.8874 176.44C66.8874 176.941 66.77 177.395 66.5354 177.8C66.3007 178.205 65.9807 178.525 65.5754 178.76C65.17 178.984 64.722 179.096 64.2314 179.096ZM76.1987 179.096C75.7187 179.096 75.2761 178.984 74.8707 178.76C74.4654 178.525 74.1454 178.205 73.9107 177.8C73.6867 177.395 73.5747 176.941 73.5747 176.44C73.5747 175.939 73.6867 175.491 73.9107 175.096C74.1454 174.691 74.4601 174.376 74.8547 174.152C75.2601 173.928 75.7081 173.816 76.1987 173.816C76.6894 173.816 77.1374 173.928 77.5427 174.152C77.9481 174.376 78.2681 174.691 78.5027 175.096C78.7374 175.491 78.8547 175.939 78.8547 176.44C78.8547 176.941 78.7374 177.395 78.5027 177.8C78.2681 178.205 77.9481 178.525 77.5427 178.76C77.1374 178.984 76.6894 179.096 76.1987 179.096ZM88.1661 179.096C87.6861 179.096 87.2435 178.984 86.8381 178.76C86.4328 178.525 86.1128 178.205 85.8781 177.8C85.6541 177.395 85.5421 176.941 85.5421 176.44C85.5421 175.939 85.6541 175.491 85.8781 175.096C86.1128 174.691 86.4275 174.376 86.8221 174.152C87.2275 173.928 87.6755 173.816 88.1661 173.816C88.6568 173.816 89.1048 173.928 89.5101 174.152C89.9155 174.376 90.2355 174.691 90.4701 175.096C90.7048 175.491 90.8221 175.939 90.8221 176.44C90.8221 176.941 90.7048 177.395 90.4701 177.8C90.2355 178.205 89.9155 178.525 89.5101 178.76C89.1048 178.984 88.6568 179.096 88.1661 179.096Z" fill="white"/>
<path d="M104.8 182.144C103.488 182.144 102.485 181.648 101.792 180.656C101.109 179.653 100.768 178.219 100.768 176.352C100.768 174.453 101.109 173.019 101.792 172.048C102.485 171.067 103.488 170.576 104.8 170.576C106.123 170.576 107.125 171.067 107.808 172.048C108.491 173.019 108.832 174.448 108.832 176.336C108.832 178.213 108.485 179.653 107.792 180.656C107.109 181.648 106.112 182.144 104.8 182.144ZM104.8 180.768C105.611 180.768 106.213 180.411 106.608 179.696C107.003 178.981 107.2 177.861 107.2 176.336C107.2 174.811 107.003 173.701 106.608 173.008C106.224 172.304 105.621 171.952 104.8 171.952C103.989 171.952 103.387 172.304 102.992 173.008C102.597 173.712 102.4 174.821 102.4 176.336C102.4 177.861 102.597 178.981 102.992 179.696C103.387 180.411 103.989 180.768 104.8 180.768ZM112.554 182V180.768L116.314 176.736C116.836 176.171 117.21 175.659 117.434 175.2C117.668 174.741 117.786 174.277 117.786 173.808C117.786 172.592 117.071 171.984 115.642 171.984C114.554 171.984 113.578 172.395 112.714 173.216L112.122 171.952C112.548 171.536 113.092 171.205 113.754 170.96C114.415 170.704 115.103 170.576 115.818 170.576C116.98 170.576 117.871 170.843 118.49 171.376C119.119 171.909 119.434 172.672 119.434 173.664C119.434 174.336 119.268 174.992 118.938 175.632C118.618 176.272 118.111 176.955 117.418 177.68L114.634 180.608H119.882V182H112.554ZM124.26 182V180.608H126.82V172.64L124.82 173.888L124.148 172.656L127.3 170.72H128.468V180.608H130.868V182H124.26ZM134.941 182V180.768L138.701 176.736C139.224 176.171 139.597 175.659 139.821 175.2C140.056 174.741 140.173 174.277 140.173 173.808C140.173 172.592 139.459 171.984 138.029 171.984C136.941 171.984 135.965 172.395 135.101 173.216L134.509 171.952C134.936 171.536 135.48 171.205 136.141 170.96C136.803 170.704 137.491 170.576 138.205 170.576C139.368 170.576 140.259 170.843 140.877 171.376C141.507 171.909 141.821 172.672 141.821 173.664C141.821 174.336 141.656 174.992 141.325 175.632C141.005 176.272 140.499 176.955 139.805 177.68L137.021 180.608H142.269V182H134.941Z" fill="white"/>
<path d="M93.344 54V42.72H94.736L98.912 50.512L103.072 42.72H104.432V54H102.944V45.728L99.408 52.272H98.4L94.848 45.76V54H93.344ZM111.013 54.144C110.469 54.144 109.984 54.0373 109.557 53.824C109.131 53.6107 108.789 53.3227 108.533 52.96C108.288 52.5973 108.165 52.1867 108.165 51.728C108.165 51.152 108.309 50.6987 108.597 50.368C108.896 50.0373 109.381 49.7973 110.053 49.648C110.736 49.4987 111.653 49.424 112.805 49.424H113.349V49.008C113.349 48.4 113.221 47.9627 112.965 47.696C112.709 47.4293 112.288 47.296 111.701 47.296C111.253 47.296 110.805 47.3653 110.357 47.504C109.909 47.632 109.451 47.84 108.981 48.128L108.485 46.992C108.891 46.704 109.397 46.4747 110.005 46.304C110.613 46.1333 111.195 46.048 111.749 46.048C112.816 46.048 113.605 46.304 114.117 46.816C114.629 47.3173 114.885 48.1067 114.885 49.184V54H113.365V52.704C113.173 53.152 112.875 53.504 112.469 53.76C112.064 54.016 111.579 54.144 111.013 54.144ZM111.333 52.992C111.909 52.992 112.389 52.7893 112.773 52.384C113.157 51.9787 113.349 51.4667 113.349 50.848V50.416H112.821C112.043 50.416 111.429 50.4533 110.981 50.528C110.544 50.6027 110.229 50.7307 110.037 50.912C109.856 51.0827 109.765 51.3227 109.765 51.632C109.765 52.0373 109.904 52.368 110.181 52.624C110.459 52.8693 110.843 52.992 111.333 52.992ZM121.447 54.144C120.807 54.144 120.21 54.064 119.655 53.904C119.1 53.7333 118.636 53.4987 118.263 53.2L118.727 52.112C119.122 52.3893 119.554 52.6027 120.023 52.752C120.503 52.9013 120.983 52.976 121.463 52.976C122.028 52.976 122.455 52.8747 122.743 52.672C123.031 52.4693 123.175 52.1973 123.175 51.856C123.175 51.5787 123.079 51.3653 122.887 51.216C122.695 51.056 122.407 50.9333 122.023 50.848L120.503 50.544C119.159 50.2667 118.487 49.5733 118.487 48.464C118.487 47.728 118.78 47.1413 119.367 46.704C119.954 46.2667 120.722 46.048 121.671 46.048C122.215 46.048 122.732 46.128 123.223 46.288C123.724 46.448 124.14 46.688 124.471 47.008L124.007 48.096C123.687 47.8187 123.319 47.6053 122.903 47.456C122.487 47.3067 122.076 47.232 121.671 47.232C121.116 47.232 120.695 47.3387 120.407 47.552C120.119 47.7547 119.975 48.032 119.975 48.384C119.975 48.9173 120.327 49.2587 121.031 49.408L122.551 49.712C123.244 49.8507 123.767 50.0853 124.119 50.416C124.482 50.7467 124.663 51.1947 124.663 51.76C124.663 52.5067 124.37 53.0933 123.783 53.52C123.196 53.936 122.418 54.144 121.447 54.144ZM131.311 54.144C130.33 54.144 129.599 53.8933 129.119 53.392C128.639 52.8907 128.399 52.1653 128.399 51.216V47.44H126.879V46.192H128.399V43.84H130.015V46.192H132.431V47.44H130.015V51.088C130.015 51.6533 130.132 52.08 130.367 52.368C130.612 52.656 131.007 52.8 131.551 52.8C131.722 52.8 131.887 52.784 132.047 52.752C132.207 52.7093 132.367 52.6613 132.527 52.608L132.783 53.824C132.623 53.92 132.399 53.9947 132.111 54.048C131.834 54.112 131.567 54.144 131.311 54.144ZM139.013 54.144C137.733 54.144 136.725 53.7867 135.989 53.072C135.253 52.3467 134.885 51.36 134.885 50.112C134.885 49.312 135.045 48.608 135.365 48C135.695 47.3813 136.149 46.9013 136.725 46.56C137.301 46.2187 137.962 46.048 138.709 46.048C139.786 46.048 140.634 46.3947 141.253 47.088C141.871 47.7707 142.181 48.7147 142.181 49.92V50.464H136.453C136.57 52.0853 137.429 52.896 139.029 52.896C139.477 52.896 139.914 52.8267 140.341 52.688C140.778 52.5493 141.189 52.32 141.573 52L142.053 53.12C141.701 53.44 141.247 53.6907 140.693 53.872C140.138 54.0533 139.578 54.144 139.013 54.144ZM138.773 47.184C138.101 47.184 137.567 47.392 137.173 47.808C136.778 48.224 136.538 48.7787 136.453 49.472H140.821C140.789 48.7467 140.597 48.1867 140.245 47.792C139.893 47.3867 139.402 47.184 138.773 47.184ZM145.542 54V46.192H147.11V47.584C147.516 46.656 148.358 46.1387 149.638 46.032L150.166 46L150.278 47.376L149.302 47.472C147.884 47.6107 147.174 48.3413 147.174 49.664V54H145.542ZM156.442 54.144C155.642 54.144 154.948 53.9787 154.362 53.648C153.786 53.3067 153.338 52.832 153.018 52.224C152.698 51.6053 152.538 50.88 152.538 50.048C152.538 48.8107 152.89 47.8347 153.594 47.12C154.298 46.4053 155.247 46.048 156.442 46.048C156.932 46.048 157.418 46.1333 157.898 46.304C158.378 46.4747 158.772 46.7093 159.082 47.008L158.57 48.144C158.271 47.8667 157.94 47.664 157.578 47.536C157.226 47.3973 156.89 47.328 156.57 47.328C155.812 47.328 155.226 47.568 154.81 48.048C154.404 48.5173 154.202 49.1893 154.202 50.064C154.202 50.9387 154.404 51.6267 154.81 52.128C155.226 52.6187 155.812 52.864 156.57 52.864C156.89 52.864 157.226 52.8 157.578 52.672C157.94 52.5333 158.271 52.3253 158.57 52.048L159.082 53.2C158.772 53.488 158.372 53.7173 157.882 53.888C157.402 54.0587 156.922 54.144 156.442 54.144ZM164.504 54.144C163.96 54.144 163.475 54.0373 163.048 53.824C162.621 53.6107 162.28 53.3227 162.024 52.96C161.779 52.5973 161.656 52.1867 161.656 51.728C161.656 51.152 161.8 50.6987 162.088 50.368C162.387 50.0373 162.872 49.7973 163.544 49.648C164.227 49.4987 165.144 49.424 166.296 49.424H166.84V49.008C166.84 48.4 166.712 47.9627 166.456 47.696C166.2 47.4293 165.779 47.296 165.192 47.296C164.744 47.296 164.296 47.3653 163.848 47.504C163.4 47.632 162.941 47.84 162.472 48.128L161.976 46.992C162.381 46.704 162.888 46.4747 163.496 46.304C164.104 46.1333 164.685 46.048 165.24 46.048C166.307 46.048 167.096 46.304 167.608 46.816C168.12 47.3173 168.376 48.1067 168.376 49.184V54H166.856V52.704C166.664 53.152 166.365 53.504 165.96 53.76C165.555 54.016 165.069 54.144 164.504 54.144ZM164.824 52.992C165.4 52.992 165.88 52.7893 166.264 52.384C166.648 51.9787 166.84 51.4667 166.84 50.848V50.416H166.312C165.533 50.416 164.92 50.4533 164.472 50.528C164.035 50.6027 163.72 50.7307 163.528 50.912C163.347 51.0827 163.256 51.3227 163.256 51.632C163.256 52.0373 163.395 52.368 163.672 52.624C163.949 52.8693 164.333 52.992 164.824 52.992ZM172.202 54V46.192H173.77V47.584C174.175 46.656 175.018 46.1387 176.298 46.032L176.826 46L176.938 47.376L175.962 47.472C174.543 47.6107 173.834 48.3413 173.834 49.664V54H172.202ZM182.637 54.144C181.954 54.144 181.352 53.984 180.829 53.664C180.317 53.3333 179.917 52.864 179.629 52.256C179.341 51.648 179.197 50.928 179.197 50.096C179.197 49.264 179.341 48.5493 179.629 47.952C179.917 47.344 180.317 46.8747 180.829 46.544C181.341 46.2133 181.944 46.048 182.637 46.048C183.224 46.048 183.746 46.176 184.205 46.432C184.664 46.688 185.005 47.0347 185.229 47.472V42.72H186.845V54H185.261V52.64C185.037 53.1093 184.69 53.4773 184.221 53.744C183.762 54.0107 183.234 54.144 182.637 54.144ZM183.053 52.896C183.714 52.896 184.248 52.656 184.653 52.176C185.058 51.696 185.261 51.0027 185.261 50.096C185.261 49.1893 185.058 48.5013 184.653 48.032C184.248 47.552 183.714 47.312 183.053 47.312C182.381 47.312 181.842 47.552 181.437 48.032C181.032 48.5013 180.829 49.1893 180.829 50.096C180.829 51.0027 181.032 51.696 181.437 52.176C181.842 52.656 182.381 52.896 183.053 52.896Z" fill="white"/>
<path d="M74.4077 39.5667H63.5923V58.4333H74.4077V39.5667Z" fill="#FF5F00"/>
<path d="M64.279 49C64.279 45.1667 66.133 41.7667 68.9828 39.5667C66.8884 37.9667 64.2446 37 61.3605 37C54.5279 37 49 42.3667 49 49C49 55.6333 54.5279 61 61.3605 61C64.2446 61 66.8884 60.0333 68.9828 58.4333C66.133 56.2667 64.279 52.8333 64.279 49Z" fill="#EB001B"/>
<path d="M88.9999 49C88.9999 55.6333 83.472 61 76.6394 61C73.7553 61 71.1115 60.0333 69.0171 58.4333C71.9012 56.2333 73.721 52.8333 73.721 49C73.721 45.1667 71.8669 41.7667 69.0171 39.5667C71.1115 37.9667 73.7553 37 76.6394 37C83.472 37 88.9999 42.4 88.9999 49Z" fill="#F79E1B"/>
</g>
<defs>
<filter id="filter0_d_475_344" x="0" y="0" width="370" height="250" filterUnits="userSpaceOnUse" color-interpolation-filters="sRGB">
<feFlood flood-opacity="0" result="BackgroundImageFix"/>
<feColorMatrix in="SourceAlpha" type="matrix" values="0 0 0 0 0 0 0 0 0 0 0 0 0 0 0 0 0 0 127 0" result="hardAlpha"/>
<feOffset dy="12"/>
<feGaussianBlur stdDeviation="12.5"/>
<feColorMatrix type="matrix" values="0 0 0 0 0.0604107 0 0 0 0 0.199302 0 0 0 0 0.419214 0 0 0 0.25 0"/>
<feBlend mode="normal" in2="BackgroundImageFix" result="effect1_dropShadow_475_344"/>
<feBlend mode="normal" in="SourceGraphic" in2="effect1_dropShadow_475_344" result="shape"/>
</filter>
<linearGradient id="paint0_linear_475_344" x1="360" y1="13" x2="19.2521" y2="25.057" gradientUnits="userSpaceOnUse">
<stop offset="0.133662" stop-color="#FEE89E"/>
<stop offset="1" stop-color="#2DD3E3"/>
</linearGradient>
<linearGradient id="paint1_linear_475_344" x1="-0.886016" y1="136.329" x2="208.744" y2="-83.7809" gradientUnits="userSpaceOnUse">
<stop stop-color="#EEEEEE"/>
<stop offset="1" stop-color="#D8D8D8" stop-opacity="0"/>
</linearGradient>
<linearGradient id="paint2_linear_475_344" x1="7.23477" y1="136.329" x2="211.181" y2="-123.1" gradientUnits="userSpaceOnUse">
<stop stop-color="#EEEEEE"/>
<stop offset="1" stop-color="#D8D8D8" stop-opacity="0"/>
</linearGradient>
<linearGradient id="paint3_linear_475_344" x1="-7.6696" y1="176.442" x2="73.726" y2="-82.116" gradientUnits="userSpaceOnUse">
<stop stop-color="#EEEEEE"/>
<stop offset="1" stop-color="#D8D8D8" stop-opacity="0"/>
</linearGradient>
</defs>
</svg>
