<svg width="60" height="20" viewBox="0 0 60 20" fill="none" xmlns="http://www.w3.org/2000/svg">
<path d="M30.96 6.18013C30.9 8.88013 33.36 10.3801 35.22 11.2801C37.08 12.1801 37.74 12.7801 37.74 13.6201C37.74 14.8801 36.24 15.4201 34.86 15.4801C32.4 15.5401 31.02 14.8201 29.88 14.2801L28.98 18.3601C30.12 18.9001 32.22 19.3201 34.38 19.3801C39.48 19.3801 42.78 16.8601 42.84 12.9601C42.84 8.04013 36 7.74013 36.06 5.52013C36.06 4.86013 36.72 4.14013 38.1 3.96013C38.82 3.84013 40.68 3.78013 42.9 4.80013L43.74 0.840128C42.6 0.420128 41.1 0.000131607 39.18 0.000131607C34.38 0.000131607 31.02 2.52013 30.96 6.18013ZM51.9 0.300131C51 0.300131 50.16 0.840128 49.86 1.68013L42.54 19.0201H47.64L48.66 16.2001H54.9L55.5 19.0201H60L56.1 0.300131H51.9ZM52.62 5.40013L54.06 12.4201H50.04L52.62 5.40013ZM24.84 0.300131L20.82 19.0201H25.68L29.7 0.300131H24.84ZM17.64 0.300131L12.6 13.0201L10.56 2.22013C10.32 1.02013 9.36 0.300131 8.34 0.300131H0.119989L0 0.840128C1.68 1.20013 3.6 1.80013 4.8 2.46013C5.52 2.82013 5.7 3.18013 5.94 4.08013L9.77999 19.0201H14.88L22.74 0.300131H17.64Z" fill="#2DD3E3"/>
</svg>
