<svg width="550" height="443" viewBox="0 0 550 443" fill="none" xmlns="http://www.w3.org/2000/svg">
<path d="M221.592 112.82C108.903 193.09 -15.1475 146.987 8.31963 256.919C39.6532 403.662 423.117 519.562 526.504 247.268C605.405 39.4537 411.643 -22.4958 221.592 112.82Z" fill="#ECECEC"/>
<path d="M167.349 97.1447C48.5302 164.326 -10.3124 123.36 38.4634 52.7602C87.2392 -17.8396 284.599 30.8418 167.349 97.1447Z" fill="#ECECEC"/>
<path d="M494.236 29.0472H106.844C101.039 29.0472 96.3333 33.753 96.3333 39.5579V275.306C96.3333 281.111 101.039 285.817 106.844 285.817H494.236C500.041 285.817 504.747 281.111 504.747 275.306V39.5579C504.747 33.753 500.041 29.0472 494.236 29.0472Z" stroke="#AEBFC4" stroke-miterlimit="10"/>
<path d="M96.3333 56.3862H504.747" stroke="#AEBFC4" stroke-miterlimit="10"/>
<path d="M434.836 36.3472C433.716 36.3472 432.62 36.6795 431.688 37.3021C430.757 37.9247 430.03 38.8096 429.601 39.845C429.173 40.8803 429.06 42.0196 429.279 43.1187C429.498 44.2178 430.037 45.2274 430.83 46.0198C431.622 46.8123 432.632 47.3519 433.731 47.5705C434.83 47.7891 435.969 47.6769 437.005 47.2481C438.04 46.8192 438.925 46.093 439.547 45.1612C440.17 44.2294 440.502 43.1339 440.502 42.0133C440.502 40.5105 439.905 39.0693 438.843 38.0067C437.78 36.9441 436.339 36.3472 434.836 36.3472V36.3472Z" stroke="#AEBFC4" stroke-miterlimit="10"/>
<path d="M457.973 36.3472C456.852 36.3472 455.757 36.6795 454.825 37.3021C453.893 37.9247 453.167 38.8096 452.738 39.845C452.309 40.8803 452.197 42.0196 452.416 43.1187C452.634 44.2178 453.174 45.2274 453.966 46.0198C454.759 46.8123 455.768 47.3519 456.868 47.5705C457.967 47.7891 459.106 47.6769 460.141 47.2481C461.177 46.8192 462.062 46.093 462.684 45.1612C463.307 44.2294 463.639 43.1339 463.639 42.0133C463.639 40.5105 463.042 39.0693 461.979 38.0067C460.917 36.9441 459.476 36.3472 457.973 36.3472V36.3472Z" stroke="#AEBFC4" stroke-miterlimit="10"/>
<path d="M481.109 36.3472C479.989 36.3472 478.893 36.6795 477.962 37.3021C477.03 37.9247 476.304 38.8096 475.875 39.845C475.446 40.8803 475.334 42.0196 475.552 43.1187C475.771 44.2178 476.311 45.2274 477.103 46.0198C477.895 46.8123 478.905 47.3519 480.004 47.5705C481.103 47.7891 482.242 47.6769 483.278 47.2481C484.313 46.8192 485.198 46.093 485.821 45.1612C486.443 44.2294 486.776 43.1339 486.776 42.0133C486.776 40.5105 486.179 39.0693 485.116 38.0067C484.053 36.9441 482.612 36.3472 481.109 36.3472V36.3472Z" stroke="#AEBFC4" stroke-miterlimit="10"/>
<path d="M532.095 183.779C532.092 181.11 531.711 178.456 530.962 175.894L536.534 170.983L531.377 162.059L524.314 164.43C520.613 160.545 515.872 157.808 510.658 156.544L509.204 149.254H498.901L497.437 156.544C492.222 157.806 487.481 160.543 483.782 164.43L476.728 162.059L471.572 170.983L477.153 175.894C475.642 181.046 475.642 186.523 477.153 191.674L471.572 196.585L476.728 205.509L483.782 203.139C487.484 207.022 492.224 209.759 497.437 211.024L498.901 218.314H509.204L510.677 211.024C515.883 209.753 520.615 207.016 524.314 203.139L531.359 205.509L536.515 196.585L530.943 191.674C531.699 189.11 532.087 186.452 532.095 183.779ZM504.057 196.009C501.638 196.011 499.273 195.295 497.26 193.952C495.248 192.61 493.679 190.7 492.752 188.466C491.825 186.231 491.581 183.772 492.052 181.399C492.523 179.026 493.687 176.846 495.397 175.135C497.107 173.424 499.286 172.258 501.659 171.786C504.031 171.313 506.49 171.555 508.726 172.48C510.961 173.405 512.871 174.973 514.216 176.984C515.56 178.995 516.277 181.36 516.277 183.779C516.265 187.017 514.974 190.119 512.685 192.41C510.396 194.7 507.295 195.994 504.057 196.009Z" fill="#1F4068"/>
<path d="M508.33 201.956C518.35 199.591 524.556 189.551 522.191 179.531C519.826 169.511 509.786 163.305 499.766 165.67C489.746 168.035 483.54 178.075 485.905 188.095C488.27 198.115 498.31 204.321 508.33 201.956Z" stroke="white" stroke-miterlimit="10"/>
<path d="M7.48872 276.354C7.48872 276.354 11.1339 295.524 15.9879 300.095C20.8419 304.666 38.6523 301.625 38.6523 301.625L7.48872 276.354Z" fill="#5C7C0E"/>
<path d="M60.0608 348.267C60.0608 348.267 55.1407 308.235 50.5606 301.115C48.1525 297.338 7.48872 276.354 7.48872 276.354C12.3672 285.181 17.8183 293.68 23.8071 301.795C36.2065 318.671 48.1147 309.151 51.2783 312.306C54.4419 315.46 58.3987 348.267 58.3987 348.267H60.0608Z" fill="#76A21E"/>
<path d="M36.4142 246.938C36.9242 243.113 40.0216 231.922 40.0216 231.922C40.0216 231.922 44.2995 256.041 50.9572 279.499C50.9572 279.499 34.5255 261.084 36.4142 246.938Z" fill="#5C7C0E"/>
<path d="M60.5424 348.266C60.5424 348.266 60.0325 298.065 57.6621 289.584C55.2918 281.104 36.4142 246.938 36.4142 246.938C36.4142 246.938 33.0429 267.581 33.9211 274.324C35.6587 287.781 55.6412 294.759 56.9444 297.177C58.2476 299.595 59.0975 348.266 59.0975 348.266H60.5424Z" fill="#76A21E"/>
<path d="M57.0294 348.267C57.0294 348.267 64.7825 297.81 64.7825 295.269C64.7825 292.729 59.6925 269.829 64.7825 258.383C69.8726 246.938 85.8888 226.587 85.8888 226.587C85.8888 226.587 88.4385 252.528 85.8888 264.739C83.339 276.949 67.0018 294.014 66.6712 296.28C66.3407 298.546 59.1825 348.267 59.1825 348.267H57.0294Z" fill="#76A21E"/>
<path d="M107.269 257.618C107.269 257.618 108.393 272.879 106.863 279.744C105.333 286.61 87.0315 291.709 87.0315 291.709C87.0315 291.709 103.964 270.084 107.269 257.618Z" fill="#5C7C0E"/>
<path d="M59.2959 348.266C59.2959 348.266 65.1414 305.95 70.8642 297.045C76.587 288.14 89.5624 279.999 94.6524 274.919C99.7425 269.838 107.269 257.618 107.269 257.618C107.269 257.618 103.813 279.499 99.7141 288.65C95.6156 297.8 75.4065 299.415 72.2429 300.095C69.0793 300.775 61.0429 348.257 61.0429 348.257L59.2959 348.266Z" fill="#76A21E"/>
<path d="M39.9461 317.197L42.1181 345.972C42.2897 348.266 43.3225 350.41 45.0093 351.974C46.696 353.538 48.9119 354.406 51.2122 354.405H71.0436C73.3446 354.409 75.5617 353.541 77.2489 351.976C78.9361 350.412 79.9682 348.266 80.1377 345.972L82.3097 317.197H39.9461Z" fill="#1B1B2F"/>
<path d="M62.3933 354.405H71.0247C73.3257 354.409 75.5428 353.541 77.23 351.976C78.9172 350.412 79.9494 348.266 80.1188 345.972L82.2908 317.197H74.651C72.4979 326.49 68.3239 342.204 62.3933 354.405Z" fill="#0E0E1C"/>
<path d="M205.255 177.159C253.9 177.159 293.335 137.725 293.335 89.0797C293.335 40.4346 253.9 1 205.255 1C156.61 1 117.175 40.4346 117.175 89.0797C117.175 137.725 156.61 177.159 205.255 177.159Z" stroke="#D8E1E5" stroke-miterlimit="10"/>
<path d="M205.255 172.4C251.271 172.4 288.575 135.096 288.575 89.0797C288.575 43.0632 251.271 5.75952 205.255 5.75952C159.238 5.75952 121.935 43.0632 121.935 89.0797C121.935 135.096 159.238 172.4 205.255 172.4Z" fill="#D8E1E5"/>
<path d="M134.041 144.419C131.624 148.196 155.894 162.975 166.943 156.166L157.499 135.051C157.499 135.051 138.744 137.1 134.041 144.419Z" fill="#1B1B2F"/>
<path d="M142.059 147.884C142.342 144.466 154.883 103.207 164.553 93.027C164.553 93.027 173.383 106.512 172.864 123.813L155.185 160.643L142.059 147.884Z" fill="#FF8F6A"/>
<path d="M230.62 46.3666C230.62 46.3666 230.847 53.9969 230.025 57.491C229.204 60.9851 225.823 67.5106 225.823 67.5106L228.968 80.8071L242.132 79.2017C242.132 79.2017 245.909 65.1025 244.785 58.9926L230.62 46.3666Z" fill="#D74015"/>
<path d="M223.674 38.1444L213.372 46.7883C212.589 47.4454 212.487 48.6128 213.144 49.3959L233.006 73.0661C233.663 73.8492 234.83 73.9513 235.613 73.2942L245.915 64.6503C246.698 63.9932 246.8 62.8257 246.143 62.0426L226.281 38.3725C225.624 37.5894 224.457 37.4873 223.674 38.1444Z" fill="#1A1C1C"/>
<path d="M234.398 72.629C234.286 72.6308 234.175 72.6071 234.073 72.5597C233.972 72.5122 233.882 72.4423 233.812 72.3551L213.981 48.6896C213.854 48.5348 213.792 48.3363 213.81 48.1368C213.828 47.9373 213.923 47.7526 214.075 47.6225L224.378 38.9817C224.511 38.8645 224.682 38.8006 224.86 38.8023C224.97 38.8019 225.08 38.8253 225.181 38.8709C225.282 38.9165 225.372 38.9833 225.445 39.0667L245.277 62.7416C245.341 62.8163 245.389 62.9035 245.419 62.9977C245.448 63.092 245.457 63.1912 245.447 63.2893C245.429 63.4903 245.335 63.6766 245.182 63.8087L234.879 72.4495C234.746 72.566 234.575 72.6298 234.398 72.629V72.629Z" stroke="white" stroke-miterlimit="10"/>
<path d="M235.691 49.568C235.691 49.568 236.957 45.7906 230.8 43.7413C224.642 41.6921 225.237 45.7811 235.691 49.568Z" fill="#FF8F6A"/>
<path d="M231.81 50.314C232.424 49.2941 237.212 48.7181 239.214 49.568C241.216 50.4179 239.799 52.741 239.799 52.741C239.799 52.741 242.859 52.08 242.859 55.7157C242.859 55.7157 245.9 57.9066 244.379 59.9181C242.859 61.9296 238.713 63.6955 237.684 63.3367C236.655 62.9778 241.206 57.7555 241.206 57.7555C241.206 57.7555 236.154 58.5205 234.162 58.0199C232.169 57.5194 238.194 53.3737 238.194 53.3737C238.194 53.3737 230.167 53.0527 231.81 50.314Z" fill="#FF8F6A"/>
<path d="M232.509 84.8774C232.509 84.8774 224.293 73.9607 222.414 70.7121C220.535 67.4635 220.468 58.4355 220.44 55.2719C220.412 52.1084 224.406 57.9161 224.879 61.4102C225.351 64.9043 225.823 67.4918 225.823 67.4918C225.823 67.4918 232.991 73.0446 242.132 79.1829L232.509 84.8774Z" fill="#FF8F6A"/>
<path d="M238.628 66.8875C239.353 66.8875 239.941 66.2998 239.941 65.5749C239.941 64.8499 239.353 64.2622 238.628 64.2622C237.903 64.2622 237.316 64.8499 237.316 65.5749C237.316 66.2998 237.903 66.8875 238.628 66.8875Z" stroke="white" stroke-miterlimit="10"/>
<path d="M187.029 85.8027C187.029 85.8027 177.321 86.8699 164.553 93.027C164.553 93.027 171.523 133.37 169.757 144.645C167.991 155.921 165.602 181.475 165.602 181.475C165.602 181.475 183.941 192.392 201.487 190.38C219.033 188.369 235.361 177.329 240.611 177.565C240.611 177.565 236.116 108.448 227.466 90.1468C222.321 89.0044 217.101 88.225 211.846 87.8142L187.029 85.8027Z" fill="#E43F5A"/>
<path d="M211.884 87.7954C209.908 78.6689 208.958 69.3501 209.051 60.0126L191.524 52.25C191.524 52.25 192.629 74.5461 187.067 85.8028C187.029 85.8028 205.831 101.215 211.884 87.7954Z" fill="#FF8F6A"/>
<path d="M209.013 60.0126L192.846 52.845L192.619 55.8575C192.619 55.8575 194.253 70.7877 210.458 80.014C209.425 73.3982 208.942 66.7082 209.013 60.0126Z" fill="#D74015"/>
<path d="M187.945 37.6786C192.1 23.5133 218.74 20.6803 220.053 40.8327C220.761 51.4945 222.971 69.3144 213.442 71.4297C203.914 73.5451 181.892 58.3127 187.945 37.6786Z" fill="#FF8F6A"/>
<path d="M207.484 45.545C207.059 45.545 206.69 46.0361 206.643 46.6971C206.596 47.3582 206.917 47.9248 207.342 47.9531C207.767 47.9815 208.135 47.4526 208.173 46.7916C208.211 46.1305 207.899 45.5639 207.484 45.545Z" fill="#1A1C1C"/>
<path d="M216.568 46.0834C216.143 46.0834 215.766 46.5744 215.728 47.2355C215.69 47.8965 216.002 48.4631 216.417 48.4915C216.833 48.5198 217.22 47.991 217.258 47.3299C217.295 46.6689 216.984 46.1023 216.568 46.0834Z" fill="#1A1C1C"/>
<path d="M201.912 43.7697C201.912 43.7697 205.765 42.2304 209.061 42.9575C209.061 42.9575 208.588 40.6344 207.776 40.5211C206.964 40.4078 202.809 40.9366 201.912 43.7697Z" fill="#1A1C1C"/>
<path d="M220.232 42.4948C220.232 41.9282 220.147 41.3616 220.119 40.8327C219.231 27.6118 207.474 24.2688 198.314 27.5457L200.278 31.2381C200.278 31.2381 201.222 43.0425 217.777 38.198C218.205 39.8207 219.052 41.3024 220.232 42.4948Z" fill="#D74015"/>
<path d="M214.774 43.7697C215.297 43.6385 215.842 43.6177 216.374 43.7087C216.905 43.7998 217.412 44.0007 217.862 44.2986C217.862 44.2986 217.286 42.0888 216.096 41.73C214.906 41.3711 214.774 43.7697 214.774 43.7697Z" fill="#1A1C1C"/>
<path d="M195.745 20.8125C198.356 20.276 200.863 19.3192 203.168 17.9795C203.168 17.9795 203.867 20.6898 202.327 21.5114C202.327 21.5114 210.723 15.8453 216.729 20.0948C223.216 24.6749 227.504 23.419 227.504 23.419C227.187 24.0995 226.739 24.7104 226.185 25.2162C225.63 25.722 224.981 26.1126 224.274 26.3653C224.274 26.3653 227.797 30.1994 226.512 33.9202C225.228 37.6409 222.867 37.6315 222.282 40.9461C222.282 40.9461 217.399 38.8591 216.729 34.1562C216.388 34.7077 216.164 35.3235 216.071 35.9653C215.979 36.6071 216.019 37.261 216.191 37.8864C216.191 37.8864 205.123 39.0197 200.25 31.191C200.25 31.191 198.937 38.9063 195.745 39.6901C195.745 39.6901 197.181 47.3394 194.867 48.4632L191.496 61.5519C188.769 56.5026 185.457 51.7924 181.627 47.5188C175.394 40.6345 185.15 34.1185 185.15 34.1185C183.831 33.6242 182.447 33.3251 181.042 33.2308C181.042 33.2308 183.157 28.8773 187.029 32.6358C187.029 32.6736 183.884 23.7023 195.745 20.8125Z" fill="#1A1C1C"/>
<path d="M195.745 49.587C195.745 49.587 188.814 40.5967 187.331 46.1118C186.264 50.0591 193.111 55.4419 193.111 55.4419L195.745 49.587Z" fill="#FF8F6A"/>
<path d="M193.611 51.7778C193.611 51.7778 189.928 43.7791 189.229 46.5083C188.53 49.2375 191.42 51.2301 191.42 51.2301" stroke="#D74015" stroke-miterlimit="10"/>
<path d="M206.067 50.2196C204.49 48.9927 202.583 48.2629 200.59 48.1232" stroke="#D74015" stroke-miterlimit="10"/>
<path d="M216.323 50.2195C217.199 49.6907 218.156 49.308 219.156 49.0863" stroke="#D74015" stroke-miterlimit="10"/>
<path d="M196.17 43.7695C196.17 43.7695 196.548 51.6643 202.658 56.9149C203.026 56.3138 203.529 55.8069 204.127 55.4347C204.726 55.0625 205.403 54.8353 206.105 54.7712C208.768 54.2991 214.415 56.1878 214.415 56.1878C214.415 56.1878 218.655 52.722 220.818 55.4417C222.98 58.1615 224.217 71.2124 216.313 72.9783C208.409 74.7443 199.457 71.6279 197.568 65.6029C197.568 65.6029 198.758 52.8542 193.583 47.1692L196.17 43.7695Z" fill="#1A1C1C"/>
<path d="M215.161 59.0871C215.161 59.0871 209.353 58.2749 206.303 56.915C206.303 56.915 208.655 65.792 215.161 59.0871Z" fill="white"/>
<path d="M227.504 90.1279C227.504 90.1279 234.86 92.2433 243.076 100.516C251.292 108.788 268.3 121.783 268.3 121.783C268.3 121.783 263.994 145.637 256.023 146.336C248.053 147.035 230.771 132.001 230.771 132.001C230.771 132.001 224.161 104.699 227.504 90.1279Z" fill="#E43F5A"/>
<path d="M209.013 63.9033C209.013 63.9033 211.535 62.7135 212.895 63.9033" stroke="#D74015" stroke-miterlimit="10"/>
<path d="M254.626 146.222C251.566 145.977 251.481 108.118 251.481 108.118L268.3 121.735C268.3 121.735 266.005 147.12 254.626 146.222Z" fill="#1B1B2F"/>
<path d="M213.216 47.7266C213.383 50.6845 214.649 53.4733 216.767 55.5458C216.767 55.5458 214.16 57.1606 212.045 55.2719" stroke="#D74015" stroke-miterlimit="10"/>
<path d="M232.509 84.8773L242.16 79.2112C242.16 79.2112 270.765 118.052 271.567 122.104C272.37 126.155 273.371 135.211 268.309 136.543C263.833 137.714 257.421 137.374 252.388 129.734C249.923 125.994 232.509 84.8773 232.509 84.8773Z" fill="#FF8F6A"/>
<path d="M236.834 136.533C236.834 136.533 235.37 112.311 231.291 97.2767" stroke="#A5213A" stroke-miterlimit="10"/>
<path d="M164.516 93.027C164.516 93.027 160.087 94.2263 150.218 115.55C144.807 127.231 134.004 144.419 134.004 144.419C134.004 144.419 154.307 132.633 166.905 156.166C166.905 156.166 173.515 134.777 172.779 121.735C172.042 108.694 164.516 93.027 164.516 93.027Z" fill="#E43F5A"/>
<path d="M166.404 97.2767C170.147 103.683 172.486 110.811 173.266 118.19C174.046 125.568 173.249 133.028 170.928 140.075" stroke="#A5213A" stroke-miterlimit="10"/>
<path d="M183.752 88.4849C183.752 88.4849 207.446 107.759 215.624 88.4849" stroke="#A5213A" stroke-miterlimit="10"/>
<path d="M182.175 120.215C182.175 120.215 155.242 143.607 142.059 147.884C139.226 154.92 143.57 164.826 154.723 163.655C164.978 162.588 188.767 131.358 188.767 131.358L182.175 120.215Z" fill="#FF8F6A"/>
<path d="M182.175 120.215C182.175 120.215 180.881 121.339 178.738 123.124C180.144 129.037 180.957 135.076 181.165 141.151C185.641 135.674 188.767 131.358 188.767 131.358L182.175 120.215Z" fill="#D74015"/>
<path d="M179.068 115.909C179.068 115.909 180.145 107.514 179.663 103.056C179.181 98.5989 187.35 101.961 184.772 113.359L183.648 118.666L179.068 115.909Z" fill="#D74015"/>
<path d="M188.257 132.633C187.284 132.644 186.333 132.344 185.543 131.777C184.753 131.21 184.165 130.404 183.865 129.479C178.86 128.27 179.559 123.256 179.559 123.256C179.559 123.256 173.808 118.137 176.613 115.21C184.016 107.466 186.519 99.3071 188.257 101.526C190.627 104.548 184.016 118.666 184.016 118.666C184.016 118.666 190.372 102.792 192.336 102.735C194.3 102.678 194.452 110.432 187.35 122.066C187.35 122.066 192.242 106.465 194.367 108.316C198.918 112.292 188.257 132.633 188.257 132.633Z" fill="#FF8F6A"/>
<path d="M189.616 123.879C193.545 122.066 198.116 114.266 198.531 117.08C198.871 119.592 199.419 121.868 194.367 127.26L189.003 131.16L189.616 123.879Z" fill="#FF8F6A"/>
<path d="M193.101 108.769C193.101 108.769 190.362 117.023 187.35 122.094" stroke="#D74015" stroke-miterlimit="10"/>
<path d="M193.649 120.819C192.211 122.053 190.655 123.141 189.003 124.068" stroke="#D74015" stroke-miterlimit="10"/>
<path d="M142.049 147.885L143.126 143.399L150.955 148.48L142.049 147.885Z" fill="#FF8F6A"/>
<path d="M144.835 146.799C144.835 146.799 149.453 144.57 152.57 142.577" stroke="#D74015" stroke-miterlimit="10"/>
<path d="M283.872 8.9231H259.461C255.288 8.9231 251.906 12.3055 251.906 16.4779V40.8894C251.906 45.0618 255.288 48.4442 259.461 48.4442H283.872C288.045 48.4442 291.427 45.0618 291.427 40.8894V16.4779C291.427 12.3055 288.045 8.9231 283.872 8.9231Z" fill="#FFB319"/>
<path d="M259.98 25.4305L269.188 34.6473L283.353 20.4821" stroke="white" stroke-width="2" stroke-miterlimit="10"/>
<path d="M467.454 253.416C462.279 221.308 355.775 219.193 345.255 253.416C337.077 279.971 316.585 359.268 307.972 372.876C301.362 383.264 264.589 379.09 248.941 389.799C237.892 397.354 242.377 416.373 243.756 423.626H427.045C466.425 423.626 467.454 253.416 467.454 253.416Z" fill="#E43F5A"/>
<path d="M467.454 253.416C466.9 250.243 465.452 247.295 463.28 244.917C460.924 247.307 459.164 250.219 458.143 253.416C449.965 279.971 429.472 359.268 420.86 372.876C414.249 383.264 377.476 379.09 361.828 389.799C350.78 397.354 355.265 416.373 356.644 423.626H427.045C466.425 423.626 467.454 253.416 467.454 253.416Z" fill="#A5213A"/>
<path d="M276.45 427.299L277.252 423.635H259.565L259.404 424.627L276.45 427.299Z" fill="#A0855B"/>
<path d="M320.56 434.203L321.429 423.635H303.732L303.552 431.539L320.56 434.203Z" fill="#A0855B"/>
<path d="M373.076 442.409L372.641 423.635H354.954L356.276 439.784L373.076 442.409Z" fill="#A0855B"/>
<path d="M303.165 344.319L298.708 364.802L258.006 379.128C250.552 381.728 244.234 386.842 240.139 393.591C236.043 400.341 234.424 408.305 235.559 416.118C237.542 429.424 242.925 442.305 256.335 442.305H363.849C363.849 442.305 396.392 414.692 400.962 378.269C403.097 361.27 389.205 344.319 389.205 344.319H303.165Z" fill="#0E0E1C"/>
<path d="M276.893 354.839C276.893 354.839 256.93 337.454 259.829 309.237L270.019 310.606L284.58 342.024L276.893 354.839Z" fill="#0E0E1C"/>
<path d="M316.424 221.478C316.424 221.478 306.508 226.813 298.274 245.7C283.919 278.498 275.005 301.965 275.005 301.965L202.658 336.604C202.658 336.604 198.522 345.103 208.164 352.724C208.164 352.724 276.875 336.953 289.727 330.059C302.58 323.166 322.695 261.122 322.695 261.122C322.695 261.122 327.029 238.807 316.424 221.478Z" fill="#FFC5AE"/>
<path d="M202.658 336.604C202.658 336.604 195.745 332.42 191.703 332.213C187.662 332.005 181.986 334.47 174.903 336.67C167.821 338.87 154.572 349.343 153.183 350.193C151.795 351.043 153.835 353.395 160.313 350.193C160.313 350.193 159.114 352.649 162.551 352.649C164.771 352.649 167.604 349.882 167.604 349.882C167.604 349.882 167.604 352.611 169.02 352.715C170.437 352.819 205.236 347.596 205.236 347.596L202.658 336.604Z" fill="#FFC5AE"/>
<path d="M208.164 352.724H194.735C187.851 352.724 176.32 352.507 177.935 349.844C179.55 347.18 204.178 342.969 204.178 342.969L208.164 352.724Z" fill="#FFC5AE"/>
<path d="M196.954 344.3C196.954 344.3 178.785 347.511 177.935 349.844C177.085 352.176 187.444 352.677 187.444 352.677" stroke="#FF946E" stroke-miterlimit="10"/>
<path d="M167.622 349.881C168.633 347.993 173.685 342.062 181.788 337.605C184.422 336.343 187.124 335.227 189.881 334.262" stroke="#FF946E" stroke-miterlimit="10"/>
<path d="M160.332 350.193C163.373 345.981 173.685 337.586 173.685 337.586" stroke="#FF946E" stroke-miterlimit="10"/>
<path d="M276.893 354.839C276.893 354.839 303.458 338.351 311.579 320.314C319.701 302.277 332.61 252.084 332.61 252.084L316.386 221.478C316.386 221.478 306.357 226.813 298.274 245.7C290.19 264.587 275.005 301.965 275.005 301.965L259.82 309.236C259.82 309.236 264.088 308.623 271.501 320.314C278.914 332.005 276.893 354.839 276.893 354.839Z" fill="#43D8C9"/>
<path d="M275.005 301.974L286.715 319.237" stroke="#0E0E1C" stroke-miterlimit="10"/>
<path d="M311.57 320.304C319.691 302.277 332.648 252.075 332.648 252.075L321.165 230.411C306.489 281.123 276.893 354.839 276.893 354.839C276.893 354.839 303.449 338.351 311.57 320.304Z" fill="#29AA9B"/>
<path d="M338.437 216.473L316.424 221.478C316.424 221.478 301.456 258.137 301.834 272.567C302.212 286.997 303.165 344.338 303.165 344.338C303.165 344.338 344.556 356.775 389.205 344.338C389.205 344.338 392.86 296.393 394.871 286.015C396.883 275.636 399.659 218.314 399.659 218.314L376.929 216.501L338.437 216.473Z" fill="#F7F7F7"/>
<path d="M394.777 137.421C397.723 146.345 402.275 185.753 412.597 197.463C412.597 197.463 383.161 214.867 356.143 213.394C329.126 211.921 311.834 199.673 311.834 199.673C311.834 199.673 331.496 166.866 335.047 137.421H394.777Z" fill="#5E1212"/>
<path d="M373.576 170.889C373.576 170.889 368.004 208.295 376.938 216.473C376.938 216.473 359.25 239.137 348.239 236.389C338.881 234.076 338.437 216.473 338.437 216.473C338.437 216.473 341.978 214.036 344.5 207.511C347.021 200.985 347.71 183.76 347.71 183.76L373.576 170.889Z" fill="#FFC5AE"/>
<path d="M370.054 172.636L347.72 183.76C347.72 183.76 347.144 198.228 345.104 205.669C367.938 198.228 369.893 176.555 370.054 172.636Z" fill="#FF946E"/>
<path d="M381.367 135.211C374.209 110.847 328.323 105.936 326 140.679C324.772 159.047 320.957 189.785 337.408 193.374C353.858 196.962 391.793 170.794 381.367 135.211Z" fill="#FFC5AE"/>
<path d="M346.473 148.649C346.473 148.649 353.207 143.087 360.195 150.538C360.195 150.538 357.182 139.206 347.559 144.627L346.473 148.649Z" fill="#5E1212"/>
<path d="M347.559 157.158C347.559 157.158 349.75 150.68 352.479 150.84C355.209 151.001 354.472 157.451 354.472 157.451" stroke="#541D0C" stroke-miterlimit="10"/>
<path d="M335.349 148.121C335.349 148.121 330.278 142.577 327.341 147.176C327.341 147.176 329.909 138.875 335.349 144.485V148.121Z" fill="#5E1212"/>
<path d="M333.895 155.987C333.895 155.987 334.046 149.915 331.808 149.915C329.569 149.915 329.343 154.797 329.343 154.797" stroke="#541D0C" stroke-miterlimit="10"/>
<path d="M337.219 160.048C335.954 163.117 333.934 165.817 331.345 167.895C331.673 168.736 332.236 169.464 332.966 169.995C333.695 170.525 334.562 170.836 335.462 170.889" stroke="#FF946E" stroke-miterlimit="10"/>
<path d="M332.072 175.545C332.072 175.545 336.048 181.267 344.792 175.545" stroke="#FF946E" stroke-miterlimit="10"/>
<path d="M348.239 161.757C350.213 158.339 358.731 159.245 359.25 161.757" stroke="#FF946E" stroke-miterlimit="10"/>
<path d="M331.666 161.474C331.666 161.474 329.173 157.073 326 159.198" stroke="#FF946E" stroke-miterlimit="10"/>
<path d="M325.197 144.173C329.004 136.936 334.595 130.79 341.44 126.316C341.44 126.316 354.425 157.583 378.959 158.82L394.777 137.45C394.777 137.45 388.516 112.896 373.576 110.394C358.636 107.891 343.055 115.644 343.055 115.644C343.055 115.644 335.906 106.305 327.048 113.132C318.19 119.96 306.962 115.805 306.962 115.805C306.962 115.805 309.851 121.547 321.76 119.998C321.76 119.97 305.791 136.836 325.197 144.173Z" fill="#5E1212"/>
<path d="M369.081 144.173C369.081 144.173 370.705 172.948 383.152 180.134L385.551 145.439L369.081 144.173Z" fill="#5E1212"/>
<path d="M371.404 162.9C371.404 162.9 388.695 143.125 388.232 158.745C387.77 174.364 369.667 174.799 369.667 174.799L371.404 162.9Z" fill="#FFC5AE"/>
<path d="M329.805 162.739C334.218 162.739 337.795 159.162 337.795 154.75C337.795 150.338 334.218 146.761 329.805 146.761C325.393 146.761 321.816 150.338 321.816 154.75C321.816 159.162 325.393 162.739 329.805 162.739Z" stroke="#ECECEC" stroke-width="2" stroke-miterlimit="10"/>
<path d="M351.441 162.739C355.853 162.739 359.43 159.162 359.43 154.75C359.43 150.338 355.853 146.761 351.441 146.761C347.028 146.761 343.451 150.338 343.451 154.75C343.451 159.162 347.028 162.739 351.441 162.739Z" stroke="#ECECEC" stroke-width="2" stroke-miterlimit="10"/>
<path d="M337.795 154.75H343.451" stroke="#ECECEC" stroke-width="2" stroke-miterlimit="10"/>
<path d="M359.43 154.75H378.78" stroke="#ECECEC" stroke-width="2" stroke-miterlimit="10"/>
<path d="M384.55 161.653C384.55 161.653 385.938 156.478 382.255 158.471C375.182 162.248 374.908 165.383 375.692 169.718" stroke="#FF946E" stroke-miterlimit="10"/>
<path d="M378.959 155.987C378.959 155.987 377.939 107.022 343.074 115.588L340.458 113.076C340.458 113.076 352.914 102.301 369.1 113.076C385.286 123.851 385.569 154.722 385.569 154.722L378.959 155.987Z" fill="#1B1B2F"/>
<path d="M390.972 164.915C392.415 155.955 388.709 147.907 382.695 146.938C376.681 145.97 370.635 152.447 369.192 161.407C367.749 170.366 371.455 178.415 377.469 179.384C383.483 180.352 389.529 173.874 390.972 164.915Z" fill="#26263F"/>
<path d="M388.184 164.241C388.701 158.37 386.712 153.399 383.74 153.137C380.769 152.875 377.94 157.421 377.422 163.292C376.904 169.163 378.894 174.134 381.865 174.397C384.837 174.659 387.666 170.112 388.184 164.241Z" stroke="#1B1B2F" stroke-miterlimit="10"/>
<path d="M386.127 163.986C386.395 160.491 385.297 157.558 383.674 157.433C382.052 157.309 380.52 160.041 380.252 163.536C379.984 167.031 381.083 169.964 382.705 170.089C384.328 170.213 385.86 167.481 386.127 163.986Z" fill="#43D8C9"/>
<path d="M374.804 160.926C375.333 154.92 378.005 149.688 381.537 146.855C375.399 146.855 369.789 154.155 368.996 163.174C368.203 172.192 372.547 179.482 378.676 179.482C380.812 179.422 382.863 178.628 384.483 177.235C378.345 177.216 374.02 169.926 374.804 160.926Z" fill="#1B1B2F"/>
<path d="M355.69 180.795L355.142 179.237C367.211 174.987 371.196 169.746 371.196 169.699L372.528 170.643C372.396 170.917 368.241 176.385 355.69 180.795Z" fill="#1B1B2F"/>
<path d="M356.143 181.05C356.231 180.368 356.05 179.679 355.64 179.128C355.23 178.577 354.621 178.206 353.943 178.094C351.478 177.717 347.125 180.644 348.277 182.873C349.429 185.101 355.341 183.685 356.143 181.05Z" fill="#0E0E1C"/>
<path d="M399.659 218.314C399.659 218.314 411.171 222.026 415.505 236.71C419.84 251.395 450.106 323.345 405.797 326.15C395.863 326.782 392.029 285.108 392.029 285.108C392.029 285.108 390.905 233.669 399.659 218.314Z" fill="#43D8C9"/>
<path d="M301.834 272.567C302.202 286.997 303.165 344.338 303.165 344.338C310.146 346.244 317.262 347.617 324.451 348.446C327.633 288.47 338.437 216.492 338.437 216.492L316.424 221.497C316.424 221.497 301.447 258.138 301.834 272.567Z" fill="#D7DDDC"/>
<path d="M376.938 216.473C376.938 216.473 367.551 285.467 371.791 363.178C371.791 363.178 399.385 369.25 410.378 357.918C410.378 357.918 400.452 330.012 399.669 288.479C399.338 270.933 399.669 218.286 399.669 218.286L376.938 216.473Z" fill="#43D8C9"/>
<path d="M338.437 216.473C338.437 216.473 318.974 273.087 313.884 360.014C313.884 360.014 302.353 361.535 294.666 356.482C294.666 356.482 300.578 270.008 301.787 264.389C305.049 249.586 309.946 235.191 316.386 221.468L338.437 216.473Z" fill="#43D8C9"/>
<path d="M399.659 280.056C399.659 280.056 385.494 248.439 395.806 224.651" stroke="#0E0E1C" stroke-miterlimit="10"/>
<path d="M399.659 288.48C399.603 285.703 399.565 282.049 399.546 277.856L372.83 259.866C372.273 267.921 371.773 276.864 371.395 286.487C376.466 302.125 384.068 320.087 394.777 332.807L401.538 363.027C404.865 362.103 407.905 360.355 410.378 357.946C410.378 357.946 400.452 330.012 399.659 288.48Z" fill="#29AA9B"/>
<path d="M313.024 230.26C313.024 230.26 305.309 251.036 301.824 264.399C298.34 277.761 296.234 339.9 296.234 339.9" stroke="#0E0E1C" stroke-miterlimit="10"/>
<path d="M411.483 285.892C411.483 285.892 417.262 338.36 398.422 323.864C387.317 315.365 386.042 280.056 386.042 280.056L411.483 285.892Z" fill="#0E0E1C"/>
<path d="M344.037 208.644C342.834 211.67 340.912 214.357 338.437 216.473C338.437 216.473 331.505 243.113 322.817 282.455C322.817 282.455 315.366 261.566 316.566 254.653C317.765 247.74 324.744 241.923 324.744 241.923C324.744 241.923 323.979 228.306 324.224 222.951C324.47 217.597 344.037 208.644 344.037 208.644Z" fill="#29AA9B"/>
<path d="M372.953 208.644C372.953 208.644 389.328 214.641 390.896 218.286C392.463 221.931 378.411 242.263 378.411 242.263C378.411 242.263 383.785 250.762 384.474 256.239C385.163 261.717 371.404 286.459 371.404 286.459C371.404 286.459 371.772 244.69 376.948 216.444C374.825 214.332 373.426 211.601 372.953 208.644Z" fill="#29AA9B"/>
<path d="M363.632 203.866C363.632 203.866 356.956 180.408 354.283 183.477C347.559 191.192 355.964 207.634 355.964 207.634L363.632 203.866Z" fill="#FF946E"/>
<path d="M374.813 222.687C374.813 222.687 372.367 209.73 373.066 206.094C374.011 201.042 368.345 189.833 365.757 185.933C363.169 182.032 355.804 173.93 354.991 175.479C354.179 177.027 356.644 184.497 360.185 189.181C360.185 189.181 357.041 186.206 355.218 189.257C354.683 190.062 354.334 190.977 354.199 191.935C354.063 192.892 354.143 193.868 354.434 194.791C353.6 194.814 352.786 195.05 352.069 195.477C351.352 195.903 350.755 196.506 350.336 197.227C349.478 199.122 349.086 201.194 349.193 203.271C349.193 203.271 345.189 203.904 345.104 207.199C345.019 210.495 348.088 218.248 349.363 221.072C350.638 223.895 351.781 219.098 351.781 219.098L360.148 227.966L374.813 222.687Z" fill="#FFC5AE"/>
<path d="M360.185 189.181C360.185 189.181 363.604 191.957 365.445 200.098" stroke="#FF946E" stroke-miterlimit="10"/>
<path d="M354.434 194.79C354.434 194.79 358.939 197.293 360.374 204.848" stroke="#FF946E" stroke-miterlimit="10"/>
<path d="M349.193 203.271C349.193 203.271 352.253 202.326 355.086 208.644" stroke="#FF946E" stroke-miterlimit="10"/>
<path d="M351.781 219.098C350.37 216.62 349.86 213.731 350.336 210.92" stroke="#FF946E" stroke-miterlimit="10"/>
<path d="M370.384 222.092L411.511 285.93C411.511 285.93 409.339 318.038 385.579 297.262C370.771 284.296 355.02 224.689 355.02 224.689L370.384 222.092Z" fill="#FFC5AE"/>
<path d="M255.003 181.126H90.7428C89.1109 181.126 87.4988 181.483 86.0199 182.173C84.541 182.863 83.2312 183.868 82.1825 185.118C81.1338 186.369 80.3718 187.833 79.95 189.41C79.5282 190.986 79.4569 192.636 79.7411 194.243L99.2797 305.072C99.7352 307.661 101.089 310.006 103.103 311.695C105.117 313.385 107.662 314.31 110.291 314.308H278.489L255.003 181.126Z" fill="#1B1B2F"/>
<path d="M271.171 272.803C217.758 278.129 139.981 274.437 81.7053 205.386L99.2797 305.072C99.7352 307.661 101.089 310.006 103.103 311.695C105.117 313.385 107.662 314.31 110.291 314.308H278.489L271.171 272.803Z" fill="#0E0E1C"/>
<path d="M203.121 274.248H147.045L139.981 314.308H210.402L203.121 274.248Z" fill="#0E0E1C"/>
<path d="M255.003 181.126C253.372 181.126 251.759 181.483 250.281 182.173C248.802 182.863 247.492 183.868 246.443 185.118C245.394 186.369 244.632 187.833 244.211 189.41C243.789 190.986 243.718 192.636 244.002 194.243L263.54 305.072C263.996 307.661 265.35 310.006 267.364 311.695C269.378 313.385 271.923 314.31 274.551 314.308H278.489L255.003 181.126Z" fill="#26263F"/>
<path d="M190.183 347.691L203.13 274.277H147.045L134.089 347.691C133.951 348.503 133.993 349.335 134.21 350.129C134.427 350.923 134.815 351.661 135.346 352.29C135.877 352.919 136.539 353.425 137.286 353.773C138.033 354.12 138.846 354.3 139.67 354.301H235.115V353.357C235.115 351.854 234.518 350.413 233.456 349.35C232.393 348.287 230.952 347.691 229.449 347.691H190.183Z" fill="#1B1B2F"/>
<path d="M139.67 354.367H235.115V353.357C235.115 351.854 234.518 350.413 233.456 349.35C232.393 348.287 230.952 347.691 229.449 347.691H190.183L192.006 337.378C153.183 322.457 147.045 274.248 147.045 274.248L134.089 347.691C133.94 348.507 133.974 349.347 134.186 350.149C134.398 350.952 134.784 351.698 135.317 352.335C135.849 352.972 136.515 353.484 137.267 353.835C138.019 354.186 138.84 354.368 139.67 354.367Z" fill="#0E0E1C"/>
<path d="M229.449 347.691H190.183L203.13 274.277C201.212 274.276 199.354 274.952 197.885 276.185C196.415 277.418 195.427 279.13 195.094 281.019L183.327 347.691C183.19 348.503 183.231 349.335 183.448 350.129C183.666 350.923 184.053 351.661 184.584 352.29C185.116 352.919 185.778 353.425 186.525 353.773C187.271 354.12 188.085 354.3 188.908 354.301H235.115V353.357C235.115 351.854 234.518 350.413 233.456 349.35C232.393 348.287 230.952 347.691 229.449 347.691Z" fill="#26263F"/>
<path d="M173.402 244.663C176.459 241.325 175.71 235.663 171.729 232.017C167.748 228.372 162.042 228.123 158.985 231.462C155.928 234.801 156.676 240.463 160.658 244.108C164.639 247.754 170.344 248.002 173.402 244.663Z" fill="#26263F"/>
<path d="M403.645 373.547L407.96 442.484H397.765L382.463 373.547H403.645Z" fill="#DB8321"/>
<path d="M507.785 373.547L526.004 442.484H519.768L494.84 373.547H507.785Z" fill="#DB8321"/>
<path d="M149.746 373.547L145.43 442.484H155.635L170.928 373.547H149.746Z" fill="#9C5518"/>
<path d="M37.3679 373.547L7.55481 442.484H17.75L58.5498 373.547H37.3679Z" fill="#DB8321"/>
<path d="M550 354.367H0V382.018H550V354.367Z" fill="#EF962D"/>
<path d="M550 354.367H340.411V382.018H550V354.367Z" fill="#9C5518"/>
<path d="M0 354.367L340.411 382.027V354.367H0Z" fill="#DB8321"/>
<path d="M467.454 85.3873V116.466C467.454 117.468 467.056 118.429 466.348 119.137C465.639 119.845 464.679 120.243 463.677 120.243H410.16L402.426 130.631V85.3873C402.426 84.3854 402.824 83.4246 403.533 82.7162C404.241 82.0078 405.202 81.6099 406.204 81.6099H463.677C464.679 81.6099 465.639 82.0078 466.348 82.7162C467.056 83.4246 467.454 84.3854 467.454 85.3873Z" stroke="#95389E" stroke-miterlimit="10"/>
<path d="M424.269 104.095C425.755 104.095 426.96 102.89 426.96 101.403C426.96 99.917 425.755 98.712 424.269 98.712C422.783 98.712 421.578 99.917 421.578 101.403C421.578 102.89 422.783 104.095 424.269 104.095Z" fill="#FFB319"/>
<path d="M434.94 104.095C436.427 104.095 437.632 102.89 437.632 101.403C437.632 99.917 436.427 98.712 434.94 98.712C433.454 98.712 432.249 99.917 432.249 101.403C432.249 102.89 433.454 104.095 434.94 104.095Z" fill="#FFB319"/>
<path d="M445.611 104.095C447.098 104.095 448.303 102.89 448.303 101.403C448.303 99.917 447.098 98.712 445.611 98.712C444.125 98.712 442.92 99.917 442.92 101.403C442.92 102.89 444.125 104.095 445.611 104.095Z" fill="#FFB319"/>
<path d="M157.678 56.4712H110.801C108.715 56.4712 107.023 58.1624 107.023 60.2486V72.6857C107.023 74.7719 108.715 76.4631 110.801 76.4631H157.678C159.765 76.4631 161.456 74.7719 161.456 72.6857V60.2486C161.456 58.1624 159.765 56.4712 157.678 56.4712Z" fill="#43D8C9"/>
<path d="M141.719 68.3511C142.762 68.3511 143.608 67.5055 143.608 66.4624C143.608 65.4193 142.762 64.5737 141.719 64.5737C140.676 64.5737 139.83 65.4193 139.83 66.4624C139.83 67.5055 140.676 68.3511 141.719 68.3511Z" fill="white"/>
<path d="M134.24 68.3511C135.283 68.3511 136.128 67.5055 136.128 66.4624C136.128 65.4193 135.283 64.5737 134.24 64.5737C133.197 64.5737 132.351 65.4193 132.351 66.4624C132.351 67.5055 133.197 68.3511 134.24 68.3511Z" fill="white"/>
<path d="M126.76 68.3511C127.803 68.3511 128.649 67.5055 128.649 66.4624C128.649 65.4193 127.803 64.5737 126.76 64.5737C125.717 64.5737 124.872 65.4193 124.872 66.4624C124.872 67.5055 125.717 68.3511 126.76 68.3511Z" fill="white"/>
</svg>
