<svg width="445" height="286" viewBox="0 0 445 286" fill="none" xmlns="http://www.w3.org/2000/svg">
<g clip-path="url(#clip0_279_5300)">
<g opacity="0.19">
<path opacity="0.19" d="M23.0321 237.369C13.9264 205.449 4.60644 173.207 3.2138 140.001C1.82117 106.795 8.99859 72.1963 29.6738 46.2742C50.3491 20.3521 86.1291 5.03452 117.945 14.5679C146.227 23.03 166.473 48.3094 193.897 59.1282C251.638 81.9439 317.521 34.3843 377.297 51.0944C406.756 59.3424 430.645 83.3364 441.144 112.044C451.642 140.751 438.787 170.636 426.467 198.593L361.442 268.433L26.3529 254.079L23.0321 237.369Z" fill="#FFC329"/>
</g>
<path d="M114.732 54.3078C114.732 54.3078 127.587 48.5236 124.587 68.8756C124.587 68.9827 111.411 66.8404 114.732 54.3078Z" fill="#FF537C"/>
<path d="M118.053 38.0264C118.053 38.0264 130.908 32.3492 127.801 52.7013C127.801 52.7013 114.625 50.4519 118.053 38.0264Z" fill="#FF537C"/>
<path d="M123.516 23.9942C123.516 23.9942 136.371 18.317 133.265 38.6691C133.265 38.6691 120.088 36.5267 123.516 23.9942Z" fill="#FF537C"/>
<path d="M150.405 35.4555C150.405 35.4555 150.083 49.4878 132.943 38.1334C132.943 38.1334 140.549 27.1005 150.405 35.4555Z" fill="#FF537C"/>
<path d="M144.941 49.4876C144.941 49.4876 144.62 63.5198 127.48 52.1655C127.48 52.0584 134.979 41.1326 144.941 49.4876Z" fill="#FF537C"/>
<path d="M141.299 65.9836C141.299 65.9836 140.978 80.0158 123.837 68.6615C123.837 68.6615 131.336 57.6286 141.299 65.9836Z" fill="#FF537C"/>
<path d="M126.516 105.188C122.445 77.7665 123.837 48.3096 141.513 25.4938C141.942 24.9582 140.978 24.3156 140.549 24.8511C122.766 47.8811 121.374 77.7665 125.444 105.402C125.444 106.152 126.623 105.938 126.516 105.188Z" fill="#0E2433"/>
<path d="M146.441 14.9963C146.441 14.9963 157.475 23.7799 137.978 30.4211C137.978 30.4211 133.8 17.7814 146.441 14.9963Z" fill="#FF537C"/>
<path d="M137.657 173.421C130.158 174.385 122.873 168.065 119.874 161.103C116.981 154.033 118.481 145.464 123.623 139.787C118.481 137.109 114.089 132.824 111.839 127.468C109.59 122.112 109.804 115.686 112.911 110.758C113.768 109.366 114.946 108.08 115.267 106.366C115.589 104.653 114.946 103.046 114.303 101.439C112.804 97.4758 111.304 93.4054 111.304 89.2278C111.304 85.0503 113.125 80.5514 116.767 78.4091C120.731 76.1597 125.98 77.1237 129.622 79.9087C133.265 82.6938 135.407 86.9784 136.693 91.3702C137.014 92.4413 137.335 93.7267 138.192 94.4765C139.049 95.4406 140.442 95.7619 141.62 96.2975C153.19 100.689 158.332 116.757 151.476 127.04C158.868 131.432 164.438 138.715 166.795 146.963C169.259 155.211 167.545 165.816 159.832 169.779C159.939 169.886 147.727 172.136 137.657 173.421Z" fill="#00C5BA"/>
<path opacity="0.25" d="M139.799 133.788C139.906 133.681 139.906 133.681 139.799 133.788L146.762 122.327C146.869 122.112 146.869 121.791 146.548 121.577C146.334 121.47 146.012 121.47 145.798 121.791L139.371 132.503C131.015 107.545 120.731 79.8015 119.981 77.7663C119.874 77.4449 119.552 77.3378 119.338 77.445C119.017 77.5521 118.91 77.8734 119.017 78.0876C119.124 78.5161 125.659 96.0831 132.622 115.9L124.052 111.936C123.837 111.829 123.516 111.936 123.302 112.151C123.195 112.365 123.302 112.686 123.516 112.9L133.05 117.292C137.335 129.718 141.834 142.893 144.941 153.176L135.086 149.213C134.764 149.106 134.55 149.213 134.336 149.534C134.229 149.855 134.336 150.07 134.657 150.177L145.263 154.461H145.37C147.726 162.281 149.226 168.172 149.226 170.636C149.226 170.957 149.44 171.172 149.762 171.172C150.083 171.172 150.297 170.957 150.297 170.636C150.297 166.244 145.584 150.819 139.799 133.788Z" fill="#0E2433"/>
<path d="M47.8853 122.434C47.8853 122.434 34.2803 124.79 47.8853 139.787C47.8853 139.787 57.5266 130.789 47.8853 122.434Z" fill="#FF537C"/>
<path d="M36.2089 110.972C36.2089 110.972 22.6039 113.436 36.316 128.325C36.316 128.218 45.8502 119.22 36.2089 110.972Z" fill="#FF537C"/>
<path d="M23.9965 102.51C23.9965 102.51 10.3915 104.974 24.1036 119.863C24.2107 119.863 33.6378 110.865 23.9965 102.51Z" fill="#FF537C"/>
<path d="M8.46313 126.718C8.46313 126.718 16.4976 137.966 24.1035 119.22C24.1035 119.22 11.8912 114.4 8.46313 126.718Z" fill="#FF537C"/>
<path d="M20.6755 135.074C20.6755 135.074 28.71 146.321 36.3159 127.575C36.3159 127.575 24.1036 122.862 20.6755 135.074Z" fill="#FF537C"/>
<path d="M32.6736 146.535C32.6736 146.535 40.708 157.782 48.3139 139.037C48.3139 139.037 36.1016 134.217 32.6736 146.535Z" fill="#FF537C"/>
<path d="M66.3112 170.315C54.5274 145.678 37.0659 122.434 10.1773 113.65C9.53457 113.436 9.96308 112.365 10.6058 112.579C37.8157 121.577 55.3844 145.035 67.2753 169.886C67.7038 170.636 66.6326 170.957 66.3112 170.315Z" fill="#0E2433"/>
<path d="M0.321622 107.866C0.321622 107.866 -3.85628 121.041 15.7477 115.793C15.7477 115.793 12.2126 103.153 0.321622 107.866Z" fill="#FF537C"/>
<path d="M81.6301 234.477C75.7382 239.405 66.3111 238.012 59.9907 233.62C53.7774 229.229 50.3494 221.195 51.6349 213.697C45.8501 214.232 39.8511 213.054 35.0304 209.734C30.2098 206.413 26.8889 200.95 26.8889 195.166C26.8889 193.452 27.1031 191.738 26.4604 190.238C25.8176 188.632 24.3179 187.668 23.0323 186.596C19.6043 184.133 16.1763 181.455 13.9267 177.92C11.677 174.385 10.82 169.672 12.7483 165.923C14.8908 161.853 19.8186 159.817 24.425 160.246C29.0314 160.674 33.1022 163.138 36.6373 166.03C37.4943 166.78 38.4584 167.637 39.6368 167.851C40.9223 168.172 42.2078 167.744 43.4934 167.53C55.5985 164.959 68.5608 175.671 68.3465 188.096C76.9166 187.882 85.4866 190.881 92.0213 196.558C98.5559 202.235 102.841 212.09 98.4488 219.481C98.4488 219.588 89.4503 227.943 81.6301 234.477Z" fill="#00C5BA"/>
<path opacity="0.25" d="M62.026 199.879V199.772L61.7046 186.596C61.7046 186.275 61.4904 186.061 61.169 186.061C60.8476 186.061 60.6334 186.275 60.6334 186.596L60.9547 199.022C40.4937 182.633 16.7118 164.745 15.1049 163.459C14.8907 163.245 14.5693 163.352 14.3551 163.566C14.1408 163.781 14.2479 164.102 14.4622 164.316C14.7836 164.53 29.7812 175.885 46.2785 188.846L36.9586 190.131C36.6372 190.131 36.423 190.453 36.5301 190.774C36.5301 191.095 36.8515 191.309 37.1728 191.202L47.564 189.81C57.9552 197.951 68.7749 206.627 76.9165 213.59L66.4181 215.625C66.0968 215.732 65.8825 215.946 65.9896 216.268C65.9896 216.589 66.311 216.696 66.6324 216.696L77.7735 214.554H77.8806C84.0939 219.802 88.5931 224.087 89.8787 226.122C89.9858 226.336 90.4143 226.444 90.6285 226.229C90.8428 226.015 90.9499 225.694 90.8428 225.48C88.3789 221.623 76.0595 211.233 62.026 199.879Z" fill="#0E2433"/>
<path opacity="0.52" d="M427.753 202.021L426.467 198.7L416.397 209.841C416.397 209.841 416.397 209.841 416.29 209.841L163.474 207.163C157.153 207.055 148.262 208.662 143.548 210.697L49.0634 250.545H13.7119L14.5689 266.719C14.4618 267.041 14.4618 267.362 14.5689 267.683L14.676 268.754H16.1758C17.1399 269.076 18.4254 269.29 20.1395 269.397L350.836 286C362.299 286.536 374.725 283.322 378.261 278.823L427.753 218.41V202.021Z" fill="#017CE6"/>
<path d="M414.148 197.094L161.331 190.988C154.582 190.774 149.654 184.668 150.297 177.277L165.08 18.8524C165.723 11.8898 171.615 5.99845 178.15 5.89134L424.003 -5.03492e-05C431.502 -0.214283 437.287 5.78422 436.965 13.2823L428.931 183.061C428.503 190.881 421.861 197.201 414.148 197.094Z" fill="#BFDFF6"/>
<g opacity="0.5">
<path opacity="0.5" d="M402.364 185.953L173.222 181.026C166.152 180.919 161.01 174.492 161.652 166.78L173.758 34.0628C174.4 26.6718 180.614 20.6733 187.47 20.459L411.041 16.0673C418.754 15.9602 424.86 22.1729 424.432 29.9924L417.468 171.386C417.147 179.634 410.291 186.168 402.364 185.953ZM187.577 21.6373C181.256 21.7444 175.579 27.3145 174.936 34.1699L162.831 166.887C162.188 173.956 166.902 179.848 173.436 179.955L402.471 184.775C409.755 184.882 416.076 178.884 416.397 171.386L423.467 30.0995C423.789 22.9227 418.325 17.1384 411.148 17.3527L187.577 21.6373Z" fill="#0E2433"/>
</g>
<path d="M349.122 270.361L18.3183 253.758C10.4981 253.329 10.9267 250.223 19.0682 246.795L141.727 195.058C146.441 193.023 155.439 191.523 161.652 191.523L414.469 194.201C422.825 194.308 428.181 196.237 426.36 198.593L376.439 263.077C373.011 267.683 360.585 270.896 349.122 270.361Z" fill="#BFDFF6"/>
<path opacity="0.47" d="M396.793 197.415L166.473 194.63C159.724 194.523 150.297 196.237 145.262 198.379L94.2705 220.445C87.8429 223.23 88.4857 225.801 96.0916 226.015L361.977 234.37C372.262 234.691 383.188 232.12 386.081 228.693L408.684 202.235C410.827 199.664 405.47 197.522 396.793 197.415ZM189.934 211.661L207.824 212.09L198.932 217.017L180.721 216.589L189.934 211.661ZM179.542 216.481L161.76 216.053L171.401 211.34L188.862 211.768L179.542 216.481ZM208.895 212.09L227.106 212.518L218.536 217.445L199.896 217.017L208.895 212.09ZM228.285 212.518L246.925 212.947L238.783 217.981L219.715 217.553L228.285 212.518ZM248.103 212.947L267.171 213.375L259.458 218.41L239.961 217.981L248.103 212.947ZM268.457 213.375L287.954 213.804L280.669 218.945L260.744 218.41L268.457 213.375ZM289.132 213.911L309.057 214.339L302.309 219.588L281.955 219.052L289.132 213.911ZM310.343 214.339L330.697 214.768L324.376 220.016L303.594 219.481L310.343 214.339ZM310.879 213.911L316.235 209.733L336.16 210.162L331.125 214.339L310.879 213.911ZM309.593 213.911L289.668 213.482L295.452 209.412L314.949 209.733L309.593 213.911ZM288.489 213.375L269.1 212.947L275.206 208.876L294.274 209.198L288.489 213.375ZM267.814 212.947L248.746 212.518L255.173 208.555L273.813 208.876L267.814 212.947ZM247.567 212.518L228.927 212.09L235.783 208.126L254.102 208.448L247.567 212.518ZM227.856 212.09L209.645 211.661L216.715 207.805L234.605 208.126L227.856 212.09ZM208.466 211.661L190.684 211.233L198.075 207.377L215.644 207.698L208.466 211.661ZM189.505 211.34L172.044 211.019L179.757 207.162L196.897 207.484L189.505 211.34ZM170.972 210.911L153.832 210.59L161.76 206.841L178.578 207.162L170.972 210.911ZM152.868 210.483L136.157 210.162L144.405 206.413L160.903 206.734L152.868 210.483ZM152.011 210.911L142.049 215.625L125.016 215.196L135.3 210.59L152.011 210.911ZM153.082 210.911L170.223 211.233L160.581 215.946L143.12 215.517L153.082 210.911ZM159.724 216.481L149.547 221.516L131.764 220.98L142.263 216.053L159.724 216.481ZM160.903 216.481L178.685 216.91L168.83 221.944L150.619 221.409L160.903 216.481ZM179.864 216.91L198.075 217.338L188.648 222.48L170.115 221.944L179.864 216.91ZM199.254 217.445L217.893 217.874L208.895 223.123L189.934 222.587L199.254 217.445ZM219.072 217.874L238.14 218.302L229.57 223.551L210.073 223.016L219.072 217.874ZM239.319 218.41L258.815 218.838L250.674 224.194L230.749 223.658L239.319 218.41ZM260.101 218.945L280.026 219.481L272.313 224.944L251.959 224.408L260.101 218.945ZM281.312 219.481L301.666 220.016L294.488 225.586L273.599 225.051L281.312 219.481ZM302.951 220.016L323.841 220.552L317.199 226.122L295.881 225.479L302.951 220.016ZM325.233 220.552L346.551 221.087L340.445 226.765L318.592 226.122L325.233 220.552ZM325.769 220.123L332.089 214.875L352.979 215.303L347.194 220.659L325.769 220.123ZM332.518 214.339L337.553 210.162L358.014 210.59L353.407 214.875L332.518 214.339ZM337.981 209.733L342.802 205.663L362.835 205.984L358.442 210.054L337.981 209.733ZM336.696 209.733L316.77 209.305L321.913 205.341L341.516 205.663L336.696 209.733ZM315.485 209.305L295.988 208.983L301.451 205.02L320.627 205.341L315.485 209.305ZM294.81 208.983L275.741 208.662L281.633 204.806L300.38 205.127L294.81 208.983ZM274.563 208.555L255.923 208.233L262.136 204.377L280.455 204.699L274.563 208.555ZM254.745 208.126L236.426 207.805L242.961 204.056L260.958 204.377L254.745 208.126ZM235.248 207.805L217.358 207.484L224.214 203.735L241.783 204.056L235.248 207.805ZM216.287 207.484L198.825 207.162L205.895 203.52L223.143 203.842L216.287 207.484ZM197.647 207.055L180.507 206.734L187.898 203.092L204.824 203.413L197.647 207.055ZM179.435 206.734L162.617 206.413L170.223 202.771L186.827 203.092L179.435 206.734ZM161.545 206.413L145.048 206.091L152.975 202.556L169.258 202.878L161.545 206.413ZM144.084 206.091L129.193 205.77L137.335 202.235L152.011 202.449L144.084 206.091ZM143.334 206.413L135.085 210.162L119.873 209.84L128.336 206.198L143.334 206.413ZM134.228 210.483L123.944 215.089L108.518 214.66L119.124 210.054L134.228 210.483ZM123.087 215.517L112.268 220.445L96.5201 220.016L107.661 215.196L123.087 215.517ZM124.159 215.517L141.192 215.946L130.693 220.873L113.339 220.338L124.159 215.517ZM129.836 221.302L119.231 226.229L101.555 225.693L112.482 220.766L129.836 221.302ZM130.907 221.409L148.69 221.944L138.406 226.979L120.302 226.443L130.907 221.409ZM149.869 221.944L168.08 222.48L158.224 227.622L139.692 227.086L149.869 221.944ZM169.258 222.48L316.663 226.657L309.914 232.335L159.403 227.622L169.258 222.48ZM318.056 226.55L340.017 227.193L333.803 232.977L311.307 232.227L318.056 226.55ZM341.302 227.3L363.799 227.943L358.121 233.834L335.089 233.084L341.302 227.3ZM341.838 226.765L347.944 221.087L369.798 221.623L364.227 227.407L341.838 226.765ZM348.48 220.659L354.264 215.303L375.582 215.732L370.333 221.195L348.48 220.659ZM354.586 214.875L359.192 210.59L380.082 211.019L375.904 215.303L354.586 214.875ZM359.621 210.162L364.013 206.091L384.474 206.413L380.51 210.59L359.621 210.162ZM364.441 205.663L368.619 201.807L388.652 202.128L384.902 206.091L364.441 205.663ZM363.156 205.663L343.23 205.341L347.837 201.485L367.441 201.807L363.156 205.663ZM341.945 205.341L322.448 205.02L327.376 201.271L346.551 201.592L341.945 205.341ZM321.163 205.02L302.094 204.699L307.343 200.95L326.09 201.271L321.163 205.02ZM300.809 204.699L282.062 204.377L287.632 200.628L306.058 200.95L300.809 204.699ZM280.99 204.27L262.672 203.949L268.564 200.307L286.561 200.521L280.99 204.27ZM261.494 203.949L243.604 203.628L249.817 199.986L267.493 200.2L261.494 203.949ZM242.425 203.628L224.857 203.306L231.391 199.771L248.639 199.986L242.425 203.628ZM223.785 203.413L206.538 203.092L213.394 199.557L230.32 199.771L223.785 203.413ZM205.467 203.092L188.541 202.771L195.611 199.236L212.216 199.45L205.467 203.092ZM187.577 202.771L171.08 202.449L178.364 199.022L194.647 199.236L187.577 202.771ZM169.901 202.449L153.725 202.128L161.331 198.7L177.293 198.914L169.901 202.449ZM152.761 202.235L138.085 202.021L145.905 198.593L160.367 198.807L152.761 202.235ZM95.2346 220.552L95.556 220.445L111.303 220.873L100.377 225.801L96.9486 225.693C89.9854 225.372 89.3427 223.123 95.2346 220.552ZM384.581 228.586C381.903 231.692 371.833 234.156 362.406 233.834L359.621 233.727L365.191 227.836L384.581 228.371L385.009 227.836L365.727 227.3L371.297 221.516L390.152 221.944L390.58 221.516L371.833 221.087L377.082 215.625L395.401 216.053L395.722 215.625L377.404 215.196L381.581 210.911L399.579 211.233L399.9 210.804L382.01 210.483L385.974 206.305L403.542 206.627L403.864 206.198L386.295 205.877L390.044 201.914L407.292 202.128L407.613 201.699L390.473 201.485L394.222 197.629H392.937L389.187 201.485L369.155 201.164L373.226 197.308H372.047L367.869 201.164L348.265 200.842L352.765 196.986H351.586L347.087 200.735L327.912 200.414L332.732 196.665H331.554L326.626 200.414L307.879 200.093L313.128 196.344H311.95L306.701 200.093L288.382 199.878L293.953 196.237H292.774L287.097 200.307L269.1 200.093L274.991 196.451H273.92L268.028 200.093L250.353 199.878L256.566 196.344H255.495L249.281 199.878L232.034 199.664L238.462 196.129H237.39L230.856 199.664L213.93 199.45L220.679 195.915H219.607L212.859 199.45L196.254 199.236L203.324 195.808H202.253L195.183 199.236L178.9 199.022L186.184 195.594H185.22L177.936 199.022L161.974 198.807L169.473 195.38H168.509L161.01 198.807L146.548 198.593C151.261 196.665 159.617 195.165 165.723 195.272L396.365 198.165C404.399 198.272 409.327 200.2 407.292 202.556L384.581 228.586Z" fill="#0E2433"/>
<path opacity="0.31" d="M217.679 259.435L129.622 255.257C120.837 254.829 119.445 251.508 126.301 247.866L148.155 236.298C154.154 233.192 165.402 230.835 173.543 231.156L254.423 233.834C263.315 234.156 267.064 237.048 262.458 240.475L245.317 253.008C240.068 256.971 227.427 259.863 217.679 259.435Z" stroke="#0E2433" stroke-miterlimit="10"/>
<path d="M379.76 271.111C379.439 271.111 379.01 271.004 378.796 270.789C378.153 270.254 378.046 269.183 378.582 268.54L414.79 224.301C415.326 223.658 416.397 223.551 417.04 224.087C417.683 224.622 417.79 225.694 417.254 226.336L381.046 270.575C380.617 270.897 380.189 271.111 379.76 271.111Z" fill="#017CE6"/>
<path d="M419.718 220.552C419.504 220.552 419.183 220.445 418.968 220.338C418.326 219.909 418.111 219.159 418.54 218.517L422.718 212.625C423.146 211.983 424.003 211.876 424.753 212.197C425.396 212.625 425.61 213.375 425.182 214.018L421.004 219.909C420.682 220.338 420.254 220.552 419.718 220.552Z" fill="#017CE6"/>
<path d="M346.337 281.608C346.23 281.608 346.337 281.608 346.337 281.608L327.054 280.537C326.197 280.537 325.448 279.68 325.555 278.823C325.555 277.966 326.412 277.323 327.269 277.323L346.444 278.395C347.301 278.395 348.051 279.252 347.944 280.109C347.837 280.965 347.194 281.608 346.337 281.608Z" fill="#017CE6"/>
<path d="M296.095 14.2463C297.278 14.2463 298.238 13.2872 298.238 12.104C298.238 10.9208 297.278 9.96167 296.095 9.96167C294.912 9.96167 293.953 10.9208 293.953 12.104C293.953 13.2872 294.912 14.2463 296.095 14.2463Z" fill="#0E2433"/>
<path d="M303.808 14.2463C304.992 14.2463 305.951 13.2872 305.951 12.104C305.951 10.9208 304.992 9.96167 303.808 9.96167C302.625 9.96167 301.666 10.9208 301.666 12.104C301.666 13.2872 302.625 14.2463 303.808 14.2463Z" fill="#00C5BA"/>
<path opacity="0.19" d="M174.936 34.17L162.831 166.887C162.831 166.887 158.974 175.992 172.579 177.384C186.184 178.777 408.149 184.561 408.149 184.561C408.149 184.561 363.799 135.181 300.059 135.93C236.319 136.68 230.642 98.6539 224.857 87.9423C219.072 77.1236 209.538 27.6359 174.936 34.17Z" fill="#017CE6"/>
<g opacity="0.33">
<path opacity="0.33" d="M418.54 131.646L415.326 131.539L414.683 76.2666L413.933 76.4809C410.398 77.6591 402.042 75.8382 401.935 75.8382L401.293 75.731V86.8711H385.224V76.6951L384.581 77.1236C380.51 79.373 375.261 77.6591 375.154 77.6591L374.511 77.4449L373.226 129.718H374.297L374.94 101.439H384.26V130.575L223.143 125.433L223.464 106.902L216.608 107.009C219.929 103.046 223.571 97.6899 222.928 94.0479C222.607 92.5483 221.964 91.6913 221 91.4771C220.25 91.2629 219.286 91.6913 218.429 92.2269C220.464 88.6921 222.5 84.1932 220.893 82.158C220.25 81.4082 219.715 81.4082 219.286 81.4082C218.108 81.6224 217.144 83.5505 216.394 85.5857C216.608 79.0516 216.394 68.4471 212.751 66.6262C211.894 66.1977 211.359 66.4119 211.037 66.7333C209.109 68.2329 209.859 76.0524 210.716 82.3722C209.752 80.5513 208.359 78.9445 206.538 78.3018C205.681 77.9805 205.253 78.3018 204.931 78.5161C203.217 80.2299 205.895 89.7633 208.038 96.4045C206.967 95.4404 205.681 94.5835 203.967 94.155C202.896 93.9408 202.467 94.2621 202.253 94.6906C201.075 96.4045 204.503 102.403 207.395 107.116L200.86 107.223V124.683L166.473 123.612V124.683L200.86 125.754V126.076L223.143 126.718V126.504L418.54 132.717V131.646ZM203.217 95.3333C203.217 95.2262 203.324 95.2262 203.539 95.2262C203.646 95.2262 203.86 95.2262 203.86 95.2262C206.86 95.8689 208.574 98.2254 209.431 99.9393C209.752 100.903 210.073 101.76 210.288 102.189L211.359 101.867C211.359 101.76 211.145 100.689 210.502 99.2966C207.609 90.9415 204.61 80.4442 206.003 79.1588C206.003 79.1588 206.11 79.0516 206.431 79.1588C209.752 80.4442 211.359 85.4786 211.894 88.1565C212.002 88.7992 212.109 89.4419 212.216 89.7633L213.287 89.549C213.287 89.4419 213.18 88.6921 212.966 87.7281C211.573 79.9086 210.18 68.7685 211.894 67.376C212.002 67.376 212.109 67.2689 212.537 67.376C216.287 69.3041 215.858 84.4074 215.322 90.1917L216.394 90.406C217.251 86.764 218.75 82.5865 219.822 82.3722C219.822 82.3722 220.036 82.2651 220.357 82.6936C221.964 84.7288 217.893 91.9056 214.894 96.0831C214.894 96.0831 214.894 96.1902 214.787 96.1902L215.644 96.8329C215.644 96.8329 215.644 96.7258 215.751 96.7258C217.144 94.9048 219.715 92.1198 221 92.4412C221.643 92.5483 221.964 93.5123 222.071 94.155C222.714 97.5827 218.75 103.046 215.43 107.009L209.002 107.116C205.253 101.653 202.467 96.2973 203.217 95.3333ZM201.932 108.294L222.393 107.973L222.071 125.326L201.932 124.683V108.294ZM384.26 100.368H375.047L375.582 78.9445C377.082 79.373 380.939 80.0157 384.367 78.5161V100.368H384.26ZM402.471 77.0164C404.399 77.4449 410.291 78.4089 413.719 77.6591L414.255 121.148L403.221 121.791L403.328 122.862L414.255 122.219V126.076H403.007L402.471 87.4067V77.0164ZM385.331 101.439L385.438 100.368H385.331V87.9423H401.4V99.6179H401.614L401.828 113.864L385.331 114.4V101.439ZM385.331 130.575V115.471L401.828 114.936L402.042 130.896H403.114V127.147H414.255V131.431L385.331 130.575Z" fill="#017CE6"/>
<path opacity="0.33" d="M384.26 107.116H375.047V108.187H384.26V107.116Z" fill="#017CE6"/>
</g>
<path d="M228.284 175.884C227.856 163.031 228.392 150.284 229.677 137.537C230.963 125.647 233.319 113.114 241.782 104.652C248.853 97.5826 259.137 94.6905 268.992 93.1908C282.704 91.1556 296.738 91.3699 310.557 92.3339C319.448 92.9766 328.554 93.8335 337.017 96.7257C345.48 99.6178 353.514 104.652 358.549 112.043C367.012 124.469 365.834 140.75 364.334 155.747C363.477 164.852 362.513 173.956 361.656 183.061L228.284 175.884Z" fill="#FFC329"/>
<path opacity="0.85" d="M266.85 92.9767L285.704 93.8336L286.454 34.1699C286.454 34.1699 269.421 35.134 264.814 56.0216C260.208 76.9092 261.494 87.4066 266.85 92.9767Z" fill="#0E2433"/>
<path d="M292.667 79.5871C292.667 79.5871 285.704 108.08 282.169 111.401C278.634 114.721 303.594 131.003 312.807 114.828C312.807 114.828 309.807 101.439 313.343 81.1938C316.878 61.056 297.488 65.662 292.667 79.5871Z" fill="#F9B191"/>
<path opacity="0.51" d="M282.276 112.472C289.346 114.4 297.488 102.51 300.595 97.1543C305.844 88.3707 307.558 78.1947 309.807 68.34C304.558 65.7692 295.667 70.8037 292.56 79.6943C292.56 79.6943 285.597 108.187 282.062 111.508C281.848 111.722 281.74 112.043 281.74 112.365C281.955 112.365 282.062 112.472 282.276 112.472Z" fill="#F9B191"/>
<path d="M277.134 110.33L255.709 114.079L252.602 188.524L314.092 199.557L331.768 122.755L312.7 115.364C312.7 115.471 283.454 110.33 277.134 110.33Z" fill="#FF537C"/>
<path d="M268.457 62.4486C268.457 62.7699 268.457 63.0913 268.564 63.4126C268.35 67.483 268.242 72.8388 269.099 78.3017C269.314 79.2658 269.421 80.1227 269.742 81.0868C270.706 85.1572 272.099 89.7632 274.349 93.298C277.884 98.6538 283.776 96.1901 288.811 94.4763C298.773 91.1557 308.307 86.1212 315.056 77.7662C318.806 73.053 321.377 67.5901 323.733 62.0201C325.662 46.8096 316.449 32.6703 302.308 29.671C288.918 26.886 275.741 35.0268 270.599 48.3092C269.635 53.1295 268.885 57.7354 268.457 62.4486Z" fill="#F9B191"/>
<path d="M277.134 110.329C277.134 110.329 266.957 184.775 267.171 191.845C267.386 198.807 247.139 189.274 247.139 189.274L248.96 112.9C248.96 112.9 269.528 107.973 277.134 110.329Z" fill="white"/>
<path d="M325.126 175.456C327.483 165.387 330.911 155.64 333.268 145.571C334.875 138.501 336.696 129.932 335.732 122.219C329.197 119.006 316.342 113.115 312.164 113.757C312.164 113.757 297.273 190.56 297.916 197.629C298.559 204.699 320.52 201.593 320.52 201.593L326.197 178.777C325.233 178.027 324.805 176.956 325.126 175.456Z" fill="white"/>
<path opacity="0.13" d="M316.342 181.026C318.913 183.061 321.484 184.989 323.948 187.025L325.983 178.777C325.233 178.027 324.805 176.956 325.126 175.456C326.84 168.494 328.876 161.745 330.804 154.89C322.984 151.141 314.735 148.249 306.058 147.713C305.951 147.713 305.737 147.713 305.629 147.606C304.665 152.748 303.701 157.996 302.844 163.138C307.236 169.458 310.129 175.992 316.342 181.026Z" fill="#017CE6"/>
<path d="M248.96 112.9C248.96 112.9 199.897 154.033 203.967 160.246C207.931 166.566 213.609 168.922 223.571 165.066C233.534 161.21 260.53 139.465 260.53 139.465C260.53 139.465 260.637 113.115 248.96 112.9Z" fill="white"/>
<path d="M334.446 121.363C334.446 121.363 366.584 176.742 360.585 181.24C354.586 185.739 348.587 186.061 340.552 179.098C332.518 172.136 314.521 142.464 314.521 142.464C314.521 142.464 323.412 117.613 334.446 121.363Z" fill="white"/>
<g opacity="0.32">
<path opacity="0.32" d="M301.773 172.992L300.594 172.457L315.806 140.536C313.878 139.786 310.343 138.18 310.664 136.359C310.771 135.609 311.95 134.109 314.842 130.253C317.627 126.611 324.162 118.149 323.305 116.864C320.413 115.471 311.95 114.4 311.843 114.4L311.95 113.115C312.271 113.115 320.734 114.186 323.841 115.685C324.162 115.9 324.483 116.221 324.591 116.542C325.126 118.685 321.055 124.04 315.806 130.896C313.985 133.252 311.95 135.93 311.843 136.466C311.736 137.109 314.092 138.501 316.77 139.465L317.413 139.679L301.773 172.992Z" fill="#017CE6"/>
</g>
<g opacity="0.32">
<path opacity="0.32" d="M268.993 167.851C268.136 165.923 262.137 135.073 263.851 132.931C264.065 132.717 264.279 132.61 264.6 132.61C265.457 132.717 268.243 130.574 270.6 128.325C268.457 125.004 260.958 113.222 261.601 110.758C261.708 110.329 261.922 110.115 262.137 110.008C264.279 108.937 275.956 109.58 277.241 109.687L277.134 110.972C272.421 110.651 264.386 110.544 262.779 111.186C262.565 112.686 267.279 121.041 271.885 128.111L272.206 128.539L271.885 128.861C270.707 130.039 266.957 133.681 264.815 133.895C264.172 137.216 268.885 164.209 270.171 167.315L268.993 167.851Z" fill="#017CE6"/>
</g>
<path d="M360.585 172.028C357.8 167.208 353.515 163.566 349.765 159.496L312.271 143.535L301.773 156.175C323.198 178.455 337.232 187.667 346.23 190.559C356.728 192.487 366.905 182.526 360.585 172.028Z" fill="white"/>
<path d="M297.809 155.211L297.381 154.676C296.738 154.033 296.738 152.962 297.488 152.319L328.019 123.398C328.662 122.755 329.733 122.755 330.376 123.505L330.804 124.04C331.447 124.683 331.447 125.754 330.697 126.397L300.166 155.318C299.523 155.961 298.452 155.961 297.809 155.211Z" fill="#017CE6"/>
<path d="M326.198 131.217L323.091 127.896C322.877 127.682 322.984 127.468 323.091 127.254L323.198 127.147C323.412 126.932 323.627 127.04 323.841 127.147L326.947 130.467C327.162 130.681 327.055 130.896 326.947 131.11L326.84 131.217C326.626 131.324 326.305 131.324 326.198 131.217Z" fill="#FFC329"/>
<path d="M315.271 137.109L315.164 137.001C315.056 136.894 315.056 136.573 315.164 136.466L325.019 127.147C325.126 127.04 325.448 127.04 325.555 127.147L325.662 127.254C325.769 127.361 325.769 127.682 325.662 127.789L315.806 137.109C315.592 137.216 315.378 137.216 315.271 137.109Z" fill="#FFC329"/>
<path d="M205.788 165.709C205.788 165.709 204.717 186.703 259.244 159.603L254.852 147.177L216.18 149.427C216.072 149.427 197.647 156.818 205.788 165.709Z" fill="white"/>
<path d="M311.723 136.94L269.731 129.564L259.686 186.745L301.679 194.12L311.723 136.94Z" fill="#0E2433"/>
<path d="M298.823 131.849L283.525 129.162L282.339 135.914L297.637 138.601L298.823 131.849Z" fill="#FFC329"/>
<path d="M255.495 149.427L256.137 148.998C256.459 148.891 256.78 148.784 256.78 148.784C256.78 148.034 257.316 145.356 263.101 141.179C270.064 136.252 270.064 135.93 271.028 137.109C271.885 138.073 266.207 143 265.993 144.714C266.743 144.5 267.386 144.178 268.028 144.071C271.242 142.893 283.99 138.501 284.204 139.786C284.526 141.179 283.454 142.464 271.242 145.892C271.349 146.106 271.456 146.428 271.671 146.642C277.027 144.821 286.882 141.5 287.097 142.571C287.418 144.071 286.24 145.464 272.849 149.32C272.956 149.534 273.063 149.855 273.17 150.07C278.098 148.356 286.133 145.892 286.24 146.856C286.561 148.249 285.49 149.534 274.134 152.747C274.242 153.069 274.349 153.283 274.349 153.604C278.955 152.105 285.383 150.07 285.49 150.927C285.704 152.212 284.847 153.39 274.349 156.282C273.277 157.032 265.136 158.425 260.422 159.067C256.03 157.139 255.28 153.497 255.495 149.427Z" fill="#F9B191"/>
<g opacity="0.42">
<path opacity="0.42" d="M256.887 148.142C256.78 148.142 253.245 147.606 247.568 147.606C247.568 147.499 247.46 147.392 247.353 147.392C246.925 147.07 246.603 146.642 246.603 145.999C246.175 142.464 252.067 135.288 254.424 132.824C254.638 132.61 254.638 132.181 254.424 131.86C254.209 131.646 253.781 131.646 253.459 131.86C253.138 132.288 244.782 141.286 245.318 146.106C245.425 146.642 245.532 147.177 245.853 147.606C239.212 147.713 230.32 148.57 221 151.569C220.679 151.676 220.465 151.998 220.572 152.426C220.679 152.64 220.893 152.855 221.107 152.855C221.215 152.855 221.322 152.855 221.429 152.855C239.747 146.963 256.566 149.427 256.78 149.534C257.102 149.641 257.423 149.32 257.53 148.998C257.53 148.463 257.316 148.142 256.887 148.142Z" fill="#017CE6"/>
<path opacity="0.42" d="M332.197 182.633C325.126 179.098 308.308 159.71 308.201 159.496C307.986 159.175 307.558 159.175 307.344 159.389C307.022 159.603 307.022 160.032 307.236 160.246C307.986 161.103 324.377 180.062 331.661 183.704C331.768 183.704 331.768 183.704 331.875 183.811C332.197 183.811 332.411 183.704 332.518 183.49C332.625 183.169 332.518 182.74 332.197 182.633Z" fill="#017CE6"/>
<path opacity="0.42" d="M353.622 166.994C346.016 160.031 311.307 148.142 309.915 147.606C309.593 147.499 309.165 147.713 309.058 148.034C308.951 148.356 309.165 148.784 309.486 148.891C309.808 148.998 345.373 161.317 352.765 168.065C352.872 168.172 352.979 168.172 353.086 168.172C353.301 168.172 353.515 168.172 353.729 167.958C353.943 167.637 353.943 167.208 353.622 166.994Z" fill="#017CE6"/>
</g>
<path d="M282.276 109.687C282.062 111.079 280.776 111.936 279.384 111.722C277.991 111.508 277.134 110.222 277.348 108.83C277.562 107.437 278.848 106.58 280.241 106.795C281.633 107.009 282.597 108.294 282.276 109.687Z" fill="white"/>
<path d="M285.276 116.007C285.061 117.399 283.776 118.256 282.383 118.042C280.991 117.828 280.134 116.542 280.348 115.15C280.562 113.757 281.848 112.9 283.24 113.114C284.633 113.329 285.597 114.614 285.276 116.007Z" fill="white"/>
<path d="M291.167 120.613C290.953 122.005 289.668 122.862 288.275 122.648C286.882 122.434 286.025 121.148 286.24 119.756C286.454 118.363 287.739 117.506 289.132 117.72C290.525 117.935 291.382 119.22 291.167 120.613Z" fill="white"/>
<path d="M298.238 122.112C298.024 123.505 296.738 124.362 295.345 124.148C293.953 123.933 293.096 122.648 293.31 121.255C293.524 119.863 294.81 119.006 296.202 119.22C297.595 119.434 298.452 120.72 298.238 122.112Z" fill="white"/>
<path d="M306.272 120.827C306.058 122.219 304.772 123.076 303.38 122.862C301.987 122.648 301.13 121.363 301.344 119.97C301.559 118.577 302.844 117.721 304.237 117.935C305.522 118.149 306.486 119.434 306.272 120.827Z" fill="white"/>
<path d="M313.45 116.221C313.235 117.613 311.95 118.47 310.557 118.256C309.165 118.042 308.308 116.757 308.522 115.364C308.736 113.972 310.022 113.115 311.414 113.329C312.807 113.543 313.664 114.936 313.45 116.221Z" fill="white"/>
<path d="M279.062 58.0569C277.563 61.8059 275.849 65.2337 274.028 68.7685L272.635 71.3393L272.314 71.982L272.206 72.3033C272.206 72.4104 272.099 72.5176 272.099 72.5176C272.099 72.5176 272.099 72.5176 272.099 72.6247C272.099 72.7318 272.206 72.7318 272.206 72.8389C272.314 72.946 272.528 73.1603 272.635 73.2674C273.385 73.8029 274.242 74.2314 275.099 74.5528C275.956 74.8741 276.92 74.9812 277.991 74.767C277.134 75.3026 276.063 75.3026 274.992 75.1955C273.92 75.0883 272.956 74.767 272.099 74.1243C271.885 74.0172 271.671 73.8029 271.457 73.5887C271.349 73.4816 271.242 73.2674 271.135 73.1603C271.028 72.946 270.921 72.8389 271.028 72.5176C271.028 72.1962 271.135 72.0891 271.135 71.982L271.242 71.6606L271.564 71.0179C271.992 70.161 272.421 69.197 272.956 68.34C274.67 64.6981 276.706 61.2704 279.062 58.0569Z" fill="#FF537C"/>
<path d="M272.742 83.6577C272.742 83.6577 272.206 80.0157 274.777 80.5513C277.348 81.0869 283.133 83.7648 284.204 83.7648C285.383 83.8719 272.742 83.6577 272.742 83.6577Z" fill="#FF537C"/>
<path opacity="0.61" d="M273.492 83.979C273.492 83.979 274.563 90.5131 283.99 83.8719C283.99 83.7648 273.92 81.9438 273.492 83.979Z" fill="#FF537C"/>
<path d="M298.131 48.4163C297.381 48.5234 282.49 20.7804 269.85 53.665C257.209 86.5496 266.743 92.1197 266.85 92.8695C266.957 93.6193 250.781 80.0156 264.493 50.7729C278.205 21.4231 299.202 21.2088 316.449 35.4553C316.556 35.5624 313.878 45.0957 298.131 48.4163Z" fill="#0E2433"/>
<path d="M298.131 48.4165C298.131 48.4165 302.308 57.7356 301.451 63.1985C300.487 68.6614 295.452 75.3026 296.845 79.6944C296.845 79.6944 298.452 77.5521 301.13 74.8742C303.808 72.1963 306.058 67.6974 305.951 65.2337C305.844 62.77 308.415 59.5566 310.236 62.77C312.057 65.9835 313.985 73.4817 305.415 76.588C305.415 76.588 305.629 94.9049 303.701 97.4757C301.773 100.046 326.412 91.9056 326.412 91.9056C326.412 91.9056 344.623 61.9131 314.842 33.9558C314.842 34.0629 297.381 43.1678 298.131 48.4165Z" fill="#0E2433"/>
<path d="M298.88 49.4875C298.88 49.4875 294.167 19.6022 278.419 26.886C262.779 34.1699 255.173 63.0913 257.101 71.9819C257.101 71.9819 266.207 36.7407 280.455 37.8119C294.703 38.7759 297.809 45.9527 298.88 49.4875Z" fill="#0E2433"/>
<path opacity="0.5" d="M305.737 66.9475C305.737 66.9475 307.772 62.8771 309.486 65.2337C311.2 67.5902 308.415 73.1603 304.987 73.1603C301.559 73.1603 305.737 66.9475 305.737 66.9475Z" fill="#F9B191"/>
<path d="M284.954 55.5931C284.954 55.5931 293.524 54.0935 299.845 57.307C299.845 57.307 290.525 55.9145 284.74 56.8785C284.74 56.8785 283.454 55.3789 284.954 55.5931Z" fill="#0E2433"/>
<path d="M274.135 54.0934C274.135 54.0934 266.636 52.0582 261.28 55.4859C261.28 55.4859 269.314 54.3076 274.349 55.593C274.349 55.593 275.42 53.8792 274.135 54.0934Z" fill="#0E2433"/>
<path d="M308.522 77.6592C308.307 79.0517 307.022 79.9086 305.629 79.6944C304.237 79.4802 303.38 78.1948 303.594 76.8023C303.808 75.4098 305.094 74.5528 306.486 74.7671C307.879 74.9813 308.736 76.3738 308.522 77.6592Z" fill="white"/>
<path d="M283.347 66.3047C283.347 66.3047 288.596 59.0208 294.81 64.698C294.81 64.698 288.596 73.3744 283.347 66.3047Z" fill="white"/>
<path d="M283.026 66.3047C283.026 66.3047 288.918 60.9489 294.488 64.6979C296.095 66.9474 291.06 55.2717 283.026 66.3047Z" fill="#0E2433"/>
<path d="M284.847 70.5893C286.326 70.5893 287.525 68.8628 287.525 66.7331C287.525 64.6034 286.326 62.877 284.847 62.877C283.368 62.877 282.169 64.6034 282.169 66.7331C282.169 68.8628 283.368 70.5893 284.847 70.5893Z" fill="#0E2433"/>
<path d="M267.921 66.4119C269.421 66.6261 271.028 66.3048 272.849 64.5909C272.849 64.5909 271.135 60.7347 267.6 59.6636C267.6 61.913 267.707 64.1625 267.921 66.4119Z" fill="white"/>
<path d="M267.814 58.5925C267.707 59.2352 267.707 59.8779 267.707 60.5206C271.028 61.5918 273.17 64.591 273.17 64.591C271.349 60.842 269.528 59.1281 267.814 58.5925Z" fill="#0E2433"/>
<path d="M264.815 64.0553C265.029 66.1977 266.529 67.8044 267.921 67.5902C269.421 67.3759 270.385 65.555 270.171 63.4126C269.957 61.2703 268.457 59.6636 267.064 59.8778C265.565 59.9849 264.6 61.913 264.815 64.0553Z" fill="#0E2433"/>
<path d="M93.9493 101.653C101.936 101.653 108.411 95.179 108.411 87.1926C108.411 79.2062 101.936 72.7319 93.9493 72.7319C85.9621 72.7319 79.4873 79.2062 79.4873 87.1926C79.4873 95.179 85.9621 101.653 93.9493 101.653Z" fill="white"/>
<path d="M96.7344 99.9395C96.7344 99.9395 98.2341 105.402 97.5914 107.223C96.9486 109.044 102.412 101.225 102.091 97.2616C101.876 93.2983 96.9486 96.2976 96.7344 99.9395Z" fill="white"/>
<path d="M95.1276 95.1191C94.8062 95.1191 94.4849 95.1191 94.1635 95.012C93.8421 94.9049 93.4136 94.6906 93.1993 94.4764C92.021 94.5835 90.8426 94.4764 89.7713 94.1551C87.6288 93.4053 86.0219 91.5843 85.5934 89.5491C85.1649 87.2996 86.3433 84.9431 88.3787 84.0862C88.7001 83.979 88.9143 83.8719 89.2357 83.8719C89.3428 83.5506 89.5571 83.2292 89.7713 82.9079C90.4141 82.051 91.3782 81.4083 92.021 81.0869C92.878 80.6584 94.0564 80.0157 95.2347 80.4442C96.0917 80.6584 96.7345 81.3011 97.2701 82.051C98.2343 83.1221 98.9841 84.1933 99.734 85.4787C100.698 83.6577 101.341 81.7296 101.769 80.23L102.412 80.4442C101.877 82.1581 101.234 84.3004 100.055 86.2285C100.055 86.3356 100.055 86.3356 100.163 86.4427C100.27 86.5498 100.27 86.7641 100.377 86.8712C100.805 87.7281 101.234 88.7993 101.127 89.8704C101.02 91.3701 99.9483 92.5483 99.0913 93.4053C97.8058 94.3693 96.4131 95.1191 95.1276 95.1191ZM94.1635 94.2622C94.2706 94.2622 94.3777 94.3693 94.4849 94.3693C95.9846 94.9049 97.6986 93.7266 98.7699 92.5483C99.6269 91.7985 100.484 90.6202 100.591 89.442C100.591 89.0135 100.591 88.6922 100.484 88.2637C100.377 88.9064 100.163 89.5491 99.8411 90.1918C98.7699 92.227 97.0559 93.6195 95.2347 94.048C95.1276 94.048 95.0205 94.048 94.8062 94.1551C94.4849 94.1551 94.2706 94.1551 94.1635 94.2622ZM88.9143 84.5146C88.8072 84.5146 88.7001 84.6217 88.5929 84.6217C86.8789 85.3716 85.9148 87.4068 86.2362 89.3348C86.5576 91.1558 88.0573 92.7626 89.9856 93.4053C90.7355 93.6195 91.4853 93.7266 92.3423 93.7266C91.2711 93.2981 90.4141 92.6554 89.8785 91.6914C89.5571 91.37 89.2357 91.0487 89.0214 90.7274C88.3787 89.6562 88.4858 88.3708 88.5929 87.4068C88.5929 86.5498 88.7001 85.4787 88.9143 84.5146ZM93.0922 93.4053C93.5207 93.5124 94.0564 93.5124 94.4849 93.5124C94.9134 93.4053 95.2347 93.191 95.6632 93.0839C97.163 92.3341 98.877 90.9416 98.9841 89.0135C98.9841 88.585 98.9841 88.0495 98.877 87.621C98.5556 87.9423 98.2343 88.3708 97.9129 88.585C98.02 89.442 97.8058 90.406 97.2701 91.2629C96.306 92.7626 94.4849 93.191 92.6637 92.9768C92.878 93.0839 92.9851 93.2981 93.0922 93.4053ZM91.2711 92.5483C91.4853 92.7626 91.8067 92.9768 92.1281 93.0839C92.1281 92.9768 92.021 92.8697 92.021 92.7626C91.8067 92.6554 91.5925 92.6554 91.2711 92.5483ZM92.5566 92.227C94.1635 92.5483 95.9846 92.227 96.8416 90.9416C97.163 90.406 97.3773 89.8704 97.3773 89.2277C97.3773 89.2277 97.3773 89.2277 97.2701 89.3348C97.0559 89.8704 96.6274 90.2989 96.0917 90.6202C95.9846 90.7274 95.7704 90.8345 95.6632 90.9416C94.8062 91.5843 93.6279 92.0127 92.5566 92.227ZM90.8426 91.5843C91.164 91.5843 91.4853 91.5843 91.8067 91.5843C91.8067 91.4772 91.8067 91.2629 91.8067 91.1558C91.3782 91.1558 90.8426 91.1558 90.307 90.9416C90.307 91.0487 90.4141 91.1558 90.4141 91.2629C90.5212 91.37 90.6283 91.4772 90.8426 91.5843ZM92.3423 91.1558C92.3423 91.2629 92.3423 91.3701 92.3423 91.5843C93.0922 91.4772 93.735 91.2629 94.3777 90.9416C94.2706 90.9416 94.2706 90.9416 94.1635 90.9416C93.5207 91.0487 92.878 91.1558 92.3423 91.1558ZM90.0927 90.1918C90.5212 90.406 91.0568 90.5131 91.4853 90.5131C91.2711 90.2989 91.164 90.0847 91.0568 89.7633C90.9497 89.5491 90.9497 89.2277 90.9497 89.0135V88.9064C90.8426 88.585 90.8426 88.1566 90.8426 87.621C91.0568 86.7641 91.3782 85.9071 92.021 85.2644C91.8067 85.4787 91.4853 85.6929 91.2711 85.9071C90.5212 86.8712 89.9856 88.1566 90.0927 89.5491C89.9856 89.7633 90.0927 89.9775 90.0927 90.1918ZM92.3423 90.2989H92.4495H92.3423ZM92.3423 89.5491C92.4495 89.6562 92.5566 89.6562 92.6637 89.7633C93.0922 89.9775 93.5207 90.0847 93.9492 90.1918C94.4849 90.0847 94.9134 89.8704 95.449 89.6562C95.7704 89.442 96.0917 89.1206 96.306 88.7993C95.1276 89.1206 93.735 88.3708 93.3065 87.2996C93.3065 87.1925 93.1993 87.0854 93.1993 86.9783C93.0922 87.0854 92.9851 87.0854 92.878 87.1925C92.6637 87.8352 92.5566 88.4779 92.4495 89.1206C92.4495 89.2277 92.4495 89.442 92.3423 89.5491ZM90.307 86.1214C89.7713 86.6569 89.45 87.2996 89.3428 88.0494C89.2357 88.4779 89.2357 89.0135 89.4499 89.3348C89.4499 88.1566 89.7713 86.9783 90.307 86.1214ZM91.5925 88.9064C91.6996 89.0135 91.6996 89.1206 91.8067 89.2277C91.8067 89.1206 91.8067 89.1206 91.8067 89.0135C91.8067 88.6921 91.9138 88.2637 92.021 87.9423C91.9138 88.0495 91.8067 88.1566 91.8067 88.3708C91.6996 88.4779 91.5925 88.6921 91.5925 88.9064ZM99.4126 86.9783C99.6269 87.4068 99.734 87.8352 99.734 88.3708C99.8411 87.9423 99.8411 87.621 99.8411 87.1925C99.8411 86.9783 99.734 86.7641 99.734 86.6569C99.734 86.7641 99.6269 86.7641 99.6269 86.8712C99.5198 86.8712 99.4126 86.9783 99.4126 86.9783ZM93.8421 86.6569C93.8421 86.7641 93.9492 86.8712 93.9492 86.9783C94.3777 87.9423 95.5561 88.3708 96.4131 88.0494C96.5202 88.0494 96.7345 87.9423 96.8416 87.8352C96.8416 87.7281 96.8416 87.621 96.9487 87.5139C96.9487 87.2996 96.9487 87.1925 96.8416 86.9783C96.7345 86.7641 96.6274 86.5498 96.5202 86.3356C95.6632 86.0142 94.592 86.3356 93.8421 86.6569ZM97.8058 87.5139C97.8058 87.621 97.8058 87.7281 97.9129 87.8352C98.2343 87.5139 98.4485 87.2996 98.6628 86.9783C98.4485 86.4427 98.02 86.0142 97.5915 85.6929C97.3772 85.4787 97.163 85.3715 96.9487 85.2644C97.3773 85.8 97.6986 86.4427 97.8058 87.0854C97.8058 87.1925 97.8058 87.2996 97.8058 87.5139ZM93.6279 84.7289C92.6637 85.3715 91.8067 86.3356 91.5925 87.4068C91.8067 87.0854 92.1281 86.8712 92.4495 86.6569C92.5566 86.4427 92.6637 86.1214 92.878 85.9071C92.9851 85.6929 93.1993 85.4787 93.4136 85.3715C93.3065 85.1573 93.4136 84.9431 93.6279 84.7289ZM89.6642 84.4075C89.4499 85.0502 89.3428 85.8 89.2357 86.5498C89.7713 85.5858 90.7355 84.836 91.8067 84.3004C91.4853 84.3004 91.2711 84.3004 90.9497 84.3004C90.6283 84.3004 90.0927 84.3004 89.6642 84.4075ZM96.306 84.0862C96.9487 84.3004 97.5915 84.6217 98.02 85.0502C98.4485 85.3716 98.7699 85.8 99.0913 86.3356C99.1984 86.2285 99.3055 86.1214 99.3055 85.9071C99.3055 85.8 99.1984 85.8 99.1984 85.6929C98.5556 84.836 97.4844 84.0862 96.306 84.0862C96.306 84.0862 96.1989 84.0862 96.306 84.0862ZM93.8421 85.8C93.8421 85.9071 93.8421 85.9071 93.8421 86.0143C94.592 85.6929 95.2347 85.5858 95.8775 85.6929C95.7704 85.5858 95.5561 85.4787 95.449 85.3715C94.8062 85.1573 94.2706 85.3715 93.8421 85.8ZM95.8775 83.4435C95.9846 83.4435 96.0917 83.4435 96.0917 83.4435C96.7345 83.4435 97.3773 83.6577 97.9129 83.979C97.4844 83.4435 97.163 82.9079 96.7345 82.4794C96.1989 81.9438 95.6632 81.3011 94.9134 81.0869C94.1635 80.8727 93.3065 81.0869 92.1281 81.7296C91.164 82.2652 90.5212 82.8008 90.0927 83.3363C89.9856 83.4435 89.8785 83.6577 89.7713 83.7648C90.0927 83.7648 90.5212 83.6577 90.8426 83.6577C91.4853 83.6577 92.4495 83.6577 93.4136 83.8719C93.5207 83.8719 93.6279 83.8719 93.735 83.8719C94.592 83.5506 95.2347 83.4435 95.8775 83.4435Z" fill="#0E2433"/>
<path opacity="0.25" d="M60.8474 228.8L266.314 236.513L316.878 195.487L127.801 199.986L60.8474 228.8Z" fill="#017CE6"/>
<path d="M98.9841 207.163C98.9841 207.163 102.841 229.978 104.983 231.478C107.126 232.871 107.554 207.377 107.554 207.377C107.554 207.377 100.912 201.914 98.9841 207.163Z" fill="#FFC329"/>
<path d="M257.637 211.34C257.637 211.34 261.494 234.156 263.636 235.656C265.779 237.048 266.207 211.554 266.207 211.554C266.207 211.554 259.673 206.092 257.637 211.34Z" fill="#FFC329"/>
<path d="M304.023 180.062C304.023 180.062 307.344 199.879 309.272 201.164C311.2 202.342 311.95 180.062 311.95 180.062C311.95 180.062 305.951 175.456 304.023 180.062Z" fill="#FFC329"/>
<path d="M313.878 177.277L308.308 181.562C276.063 181.562 135.728 180.812 121.159 168.601C104.662 154.676 99.5197 133.038 99.5197 133.038L48.3137 151.784C47.5638 150.391 46.4925 148.892 45.0999 148.035C41.8861 145.892 42.3146 154.033 42.3146 154.033C42.3146 154.14 42.4218 154.247 42.5289 154.354C54.7412 172.671 66.0965 192.488 85.7005 202.985C90.3069 205.449 95.0205 207.591 99.9483 209.412C158.117 214.339 269.421 217.981 269.421 217.981L314.842 181.455L313.878 177.277Z" fill="#017CE6"/>
<path d="M313.878 177.277L308.308 181.562C276.063 181.562 135.728 180.812 121.159 168.601C104.662 154.676 99.5197 133.038 99.5197 133.038L48.3137 151.784C47.5638 150.391 46.4925 148.892 45.0999 148.035C41.8861 145.892 42.3146 154.033 42.3146 154.033C42.3146 154.14 42.4218 154.247 42.5289 154.354C54.7412 172.671 66.0965 192.488 85.7005 202.985C90.3069 205.449 95.0205 207.591 99.9483 209.412C158.117 214.339 269.421 217.981 269.421 217.981L314.842 181.455L313.878 177.277Z" fill="#017CE6"/>
<path d="M123.944 162.602C107.447 148.677 102.305 127.04 102.305 127.04L45.0999 148.035C57.4193 166.459 68.7746 186.489 88.5929 197.094C93.1993 199.557 97.9128 201.7 102.841 203.521C161.01 208.448 268.028 213.804 268.028 213.804L313.985 177.384C313.878 177.277 140.442 176.42 123.944 162.602Z" fill="#017CE6"/>
<path d="M188.327 192.166C182.435 189.167 132.943 178.991 132.943 178.991C132.943 178.991 131.122 179.312 128.872 179.955C125.659 183.704 122.123 186.918 117.838 189.595C120.195 195.273 131.872 208.127 187.791 199.343C187.684 199.236 194.219 195.273 188.327 192.166Z" fill="#0E2433"/>
<path d="M192.933 178.455C187.149 176.206 140.549 171.6 135.3 171.064C131.979 176.206 128.23 181.133 123.73 185.097C128.444 190.774 143.763 198.808 193.041 185.632C193.148 185.525 199.147 180.812 192.933 178.455Z" fill="#0E2433"/>
<path d="M242.854 197.094C227.963 194.737 171.187 187.453 171.187 187.453C171.187 187.453 175.043 198.486 184.792 198.486C184.792 198.486 195.183 206.306 242.532 201.378C242.425 199.879 242.64 198.486 242.854 197.094Z" fill="#0E2433"/>
<path d="M241.89 197.308C241.89 197.308 246.282 196.022 246.389 190.988C246.496 185.953 245.853 181.669 249.924 182.419C254.102 183.168 251.96 198.807 250.246 200.843C248.532 202.985 241.783 200.843 241.783 200.843C241.783 200.843 239.854 197.95 241.89 197.308Z" fill="#F9B191"/>
<path d="M246.175 202.021C246.175 202.021 251.424 189.06 246.603 186.81C246.603 186.81 245.318 181.99 248.853 181.99C252.388 181.99 253.888 188.096 252.602 193.023C251.21 197.843 253.459 202.235 246.175 202.021Z" fill="#0E2433"/>
<path d="M249.817 177.384C249.817 177.384 254.209 176.099 254.317 171.064C254.424 166.03 253.781 161.745 257.852 162.495C261.923 163.245 259.887 178.884 258.173 180.919C256.459 183.061 249.71 180.919 249.71 180.919C249.71 180.919 247.782 178.027 249.817 177.384Z" fill="#F9B191"/>
<path d="M254.102 181.99C254.102 181.99 259.351 169.029 254.531 166.78C254.531 166.78 253.245 161.959 256.78 161.959C260.316 161.959 261.815 168.065 260.53 172.992C259.137 177.813 261.387 182.204 254.102 181.99Z" fill="#0E2433"/>
<path d="M249.175 177.598C236.962 176.849 175.365 175.563 175.365 175.563C175.365 175.563 180.4 186.168 190.041 185.097C190.041 185.097 201.504 191.952 249.71 181.348C249.603 180.062 249.389 178.884 249.175 177.598Z" fill="#0E2433"/>
<path d="M86.5576 142.25C86.5576 142.25 92.021 149.427 93.4137 151.998C94.8063 154.569 102.519 150.605 101.448 145.464L94.3778 134.966C94.4849 134.859 82.7011 136.466 86.5576 142.25Z" fill="#F9B191"/>
<path opacity="0.5" d="M100.698 149.106C101.341 148.034 101.769 146.749 101.448 145.356L94.3777 134.859C94.3777 134.859 90.5212 135.395 87.9502 137.001C91.8067 141.393 96.0917 145.464 100.698 149.106Z" fill="#F9B191"/>
<path d="M96.199 114.293C91.6997 107.223 82.7012 104.652 75.5237 108.616C68.0249 112.793 65.4539 122.327 69.7389 130.039C71.0245 132.395 72.7385 134.216 74.7739 135.609C77.8805 138.287 84.9508 143.643 88.9144 142.464C94.1636 140.858 104.983 137.965 105.626 133.467C106.162 129.825 100.484 119.863 96.199 114.293Z" fill="#F9B191"/>
<path opacity="0.5" d="M93.7352 140.429C90.4143 141.929 87.4148 142.357 84.4153 142.036C86.0222 142.679 87.6291 142.893 88.8074 142.572C94.0566 140.965 104.876 138.073 105.519 133.574C102.412 136.68 97.1632 138.93 93.7352 140.429Z" fill="#F9B191"/>
<path d="M86.5577 142.25C86.5577 142.25 87.5218 138.18 81.8441 134.859C81.8441 134.859 75.0952 133.467 76.8092 127.468C78.5232 121.47 82.8083 128.432 84.2009 130.467C85.5935 132.503 88.9144 134.109 90.1999 133.467C91.5926 132.824 80.4515 124.041 80.4515 121.363C80.4515 118.685 86.7719 116.328 84.5223 107.652C84.5223 107.652 86.2363 116.649 86.2363 117.721C86.2363 118.792 95.2348 115.043 93.9493 109.687C93.9493 109.687 79.4874 97.5828 68.132 113.757C56.7767 129.932 76.4879 145.678 86.5577 142.25Z" fill="#0E2433"/>
<path d="M68.2391 119.327C66.3109 117.721 65.3467 115.257 63.5256 113.436C62.4544 112.365 61.3831 111.401 59.9905 110.972C58.5978 110.544 56.8838 110.758 55.9197 111.829C54.8484 113.115 55.0627 115.15 56.0268 116.542C56.9909 117.935 58.4907 118.792 59.9905 119.649C58.2765 119.327 56.4553 119.542 54.8484 120.184C53.2416 120.827 51.7418 122.219 51.8489 124.04C51.956 125.433 53.2415 126.611 54.7413 126.825C56.1339 127.04 57.6337 126.504 58.705 125.647C58.0622 126.611 57.4195 127.575 57.2052 128.646C56.9909 129.718 57.4195 131.11 58.3836 131.646C59.2406 132.074 60.2047 131.86 61.0617 131.646C63.7399 130.789 66.2038 129.182 68.0249 127.04C68.0249 126.933 71.6672 122.219 68.2391 119.327Z" fill="#0E2433"/>
<path d="M97.0559 117.185C97.0559 117.185 101.02 119.756 102.198 119.756C103.376 119.756 102.198 122.327 100.912 122.969" fill="#F9B191"/>
<path d="M91.8068 116.114L92.6638 116.542C92.6638 116.542 91.2711 121.363 89.1286 122.22C89.0215 122.327 91.6996 118.042 91.8068 116.114Z" fill="#0E2433"/>
<path d="M92.2354 123.826C93.0924 122.22 94.3779 120.72 95.8776 119.863C95.8776 119.649 95.7705 119.435 95.7705 119.113C95.7705 119.113 92.0211 117.507 91.2712 123.719C91.2712 123.719 91.6997 123.826 92.2354 123.826Z" fill="white"/>
<path d="M91.3783 124.148C91.3783 124.148 92.0211 119.006 95.7705 119.113C95.7705 119.113 93.628 117.828 91.6997 121.255C91.6997 121.255 90.9498 123.076 91.3783 124.148Z" fill="#0E2433"/>
<path d="M96.3063 120.291C96.3063 121.041 95.6635 121.684 94.9136 121.684C94.1637 121.684 93.521 121.041 93.521 120.291C93.521 119.542 94.1637 118.899 94.9136 118.899C95.7706 118.792 96.3063 119.434 96.3063 120.291Z" fill="#0E2433"/>
<path d="M92.2354 123.826C92.2354 123.826 91.914 125.54 92.9853 125.754C94.0565 125.968 92.6639 123.719 92.9853 123.291C93.3066 122.969 94.0565 122.219 93.628 122.112C93.3066 122.112 92.3425 122.755 92.2354 123.826Z" fill="#017CE6"/>
<path d="M102.734 125.112C102.734 125.112 100.377 126.933 101.02 130.039C101.02 130.039 104.448 129.503 104.555 128.754C104.555 128.754 103.483 124.576 102.734 125.112Z" fill="#FF537C"/>
<path d="M103.591 126.076C103.591 126.076 102.198 127.682 101.984 128.646L104.34 127.575L103.591 126.076Z" fill="#0E2433"/>
<path d="M85.3792 143.75C87.2003 142.786 88.3787 141.5 88.593 139.251C88.7001 138.073 88.593 135.395 87.4146 134.752C86.3433 134.109 83.5581 135.181 82.1654 134.752C80.13 134.109 78.9517 132.503 78.5232 130.575C78.3089 129.611 78.5232 128.647 79.0588 128.004C79.273 127.575 79.7015 127.254 80.0229 127.147C80.5585 126.826 81.0942 126.611 81.7369 126.611C80.7728 125.112 79.1659 120.613 75.0951 126.076C70.5959 132.074 80.8799 140.751 83.2367 141.608C84.6293 142.036 85.1649 143 85.3792 143.75Z" fill="#0E2433"/>
<path opacity="0.5" d="M82.3797 129.61C82.3797 129.61 80.1301 128.754 80.023 130.467C79.9158 132.074 83.0225 134.966 84.9507 132.717L82.3797 129.61Z" fill="#F9B191"/>
<path d="M88.2717 134.752C88.2717 135.395 87.736 135.823 87.2004 135.823C86.5577 135.823 86.1292 135.288 86.1292 134.752C86.1292 134.217 86.6648 133.681 87.2004 133.681C87.736 133.574 88.2717 134.109 88.2717 134.752Z" fill="white"/>
<path d="M127.265 111.079L127.158 110.651C127.158 110.437 127.158 110.33 127.158 110.223C126.73 110.115 125.444 109.366 124.266 105.724C122.873 101.332 122.766 101.225 123.516 101.011C124.159 100.796 125.766 104.545 126.623 104.867C126.623 104.438 126.623 104.117 126.623 103.688C126.623 101.867 126.408 94.5836 127.051 94.6907C127.801 94.7978 128.337 95.5476 128.015 102.403C128.122 102.403 128.337 102.403 128.444 102.296C128.337 99.1895 128.337 93.6195 128.872 93.7266C129.729 93.8337 130.265 94.6907 129.944 102.189C130.051 102.189 130.265 102.189 130.372 102.189C130.372 99.4038 130.372 94.9049 130.908 94.9049C131.658 95.012 132.193 95.7618 131.872 102.082C132.086 102.082 132.193 102.082 132.3 102.082C132.3 99.5109 132.3 95.8689 132.729 95.9761C133.372 96.0832 133.907 96.7259 133.693 102.51C133.907 103.26 133.264 107.545 132.836 110.115C131.336 112.151 129.301 111.829 127.265 111.079Z" fill="#F9B191"/>
<path d="M139.049 139.465C138.621 132.074 132.943 108.616 132.943 108.616L126.944 110.651C125.551 125.969 126.623 132.181 128.015 136.68C116.66 137.858 100.055 143 100.055 147.713C100.055 148.784 106.483 160.031 136.264 145.249C136.264 145.249 140.335 142.679 139.049 139.465Z" fill="#FFC329"/>
<path opacity="0.4" d="M100.698 148.891C102.841 151.783 111.304 157.675 136.371 145.249C136.371 145.249 138.728 143.75 139.263 141.607C126.73 145.571 113.553 146.749 100.698 148.891Z" fill="#FFC329"/>
<path d="M141.513 171.921C141.192 169.779 131.765 166.458 124.909 158.532C127.051 153.39 123.302 147.392 121.266 147.713C120.409 147.82 117.624 147.499 114.41 147.07C111.625 145.249 108.733 143.857 105.519 143L104.876 143.428C103.805 141.715 101.984 138.394 100.805 139.894C99.5199 141.715 89.0215 145.035 87.4147 145.678C86.1292 146.213 89.6643 149.213 91.1641 150.498L88.8073 152.855C86.879 157.032 86.879 161.103 88.0574 164.959C95.8776 171.921 107.769 186.918 121.266 194.523C121.159 194.416 142.156 176.527 141.513 171.921Z" fill="#FFC329"/>
<path opacity="0.4" d="M141.513 171.921C141.299 170.636 137.764 168.922 133.586 166.03C129.087 172.029 122.338 175.885 113.875 175.135C102.734 174.171 92.5568 164.959 88.1646 154.569C86.9862 158.103 87.0934 161.531 88.0575 164.852C95.8777 171.814 107.769 186.811 121.266 194.416C121.159 194.416 142.156 176.527 141.513 171.921Z" fill="#FFC329"/>
<path opacity="0.31" d="M109.161 143.964C110.554 144.607 111.839 145.142 113.232 145.678C114.625 146.214 116.017 146.642 117.41 146.856C118.16 146.963 118.802 147.07 119.552 147.178C119.874 147.178 120.302 147.178 120.624 147.178H121.159C121.373 147.178 121.588 147.178 121.802 147.178C122.659 147.285 123.409 147.713 123.944 148.356C124.48 148.999 124.801 149.748 124.801 150.498C124.266 149.106 122.98 148.142 121.695 148.142C121.588 148.142 121.373 148.142 121.266 148.142L120.731 148.249C120.302 148.356 119.981 148.356 119.552 148.356C118.802 148.356 118.053 148.249 117.303 148.142C114.196 147.285 111.411 145.892 109.161 143.964Z" fill="#0E2433"/>
<path opacity="0.31" d="M94.9136 148.463C96.6276 147.606 98.2345 146.963 99.7342 146.106C101.234 145.249 102.627 144.285 103.591 142.679C103.591 143.643 103.055 144.5 102.519 145.25C101.877 145.999 101.127 146.535 100.27 147.07C99.4129 147.499 98.5558 147.927 97.6988 148.142C96.7347 148.356 95.7706 148.463 94.9136 148.463Z" fill="#0E2433"/>
<path d="M124.694 167.315L125.016 166.994C125.23 166.887 125.337 166.78 125.337 166.78C125.23 166.351 125.123 164.852 127.587 161.852C130.479 158.318 130.479 158.103 131.122 158.639C131.657 159.067 129.408 162.388 129.622 163.352C129.943 163.138 130.265 162.924 130.586 162.709C132.086 161.638 138.085 157.568 138.299 158.21C138.621 158.853 138.299 159.71 132.407 163.245C132.514 163.352 132.622 163.459 132.729 163.566C135.193 161.852 139.906 158.746 140.12 159.282C140.442 160.031 140.013 160.888 133.693 164.852C133.8 164.959 133.907 165.066 134.014 165.173C136.371 163.566 140.12 161.103 140.335 161.638C140.656 162.281 140.335 163.138 134.871 166.458C134.978 166.566 135.086 166.78 135.086 166.887C137.228 165.387 140.228 163.459 140.442 163.888C140.763 164.53 140.442 165.28 135.514 168.279C135.086 168.815 131.015 170.636 128.765 171.707C125.98 171.279 125.123 169.458 124.694 167.315Z" fill="#F9B191"/>
<path d="M124.694 167.315C112.054 170.743 107.661 174.171 103.484 176.849C101.662 165.602 95.8776 150.07 91.3783 150.284C90.3071 150.391 79.3803 157.246 95.5562 186.382C95.5562 186.382 96.5204 187.775 97.913 188.631C98.77 189.488 99.9484 190.024 101.02 190.131C104.662 190.345 130.158 171.493 130.158 171.493L124.694 167.315Z" fill="#FFC329"/>
<path opacity="0.31" d="M98.02 153.604C98.877 155.425 99.5198 157.246 100.27 159.175C100.912 161.103 101.555 162.924 102.091 164.852C102.626 166.78 103.055 168.708 103.483 170.743C103.805 172.778 104.019 174.706 104.019 176.849L103.162 176.42C106.59 174.492 110.018 172.564 113.553 170.85C115.374 169.993 117.088 169.136 118.91 168.387C120.731 167.637 122.552 166.887 124.48 166.458C122.659 167.101 120.838 167.958 119.124 168.922C117.41 169.779 115.589 170.743 113.875 171.707C110.447 173.635 107.019 175.563 103.591 177.491L102.841 177.813V176.849C102.841 174.921 102.626 172.885 102.412 170.957C102.091 169.029 101.662 167.101 101.234 165.173C100.805 163.245 100.27 161.317 99.734 159.389C99.1984 157.461 98.5556 155.533 98.02 153.604Z" fill="#0E2433"/>
</g>
<defs>
<clipPath id="clip0_279_5300">
<rect width="445" height="286" fill="white"/>
</clipPath>
</defs>
</svg>
