  <svg width="93" height="100" viewBox="0 0 93 100" fill="none" xmlns="http://www.w3.org/2000/svg">
  <path d="M82.7914 22.1258H71.1818V15.9593C71.1793 13.5069 70.2612 11.1557 68.6288 9.42155C66.9964 7.68744 64.7831 6.71207 62.4745 6.70947H10.2312C7.92261 6.71207 5.70931 7.68744 4.07692 9.42155C2.44453 11.1557 1.52637 13.5069 1.52393 15.9593V56.0418C1.52637 58.4942 2.44453 60.8454 4.07692 62.5796C5.70931 64.3137 7.92261 65.289 10.2312 65.2916V76.0831C10.2309 76.3882 10.3159 76.6865 10.4754 76.9402C10.6348 77.194 10.8615 77.3917 11.1269 77.5085C11.3922 77.6253 11.6841 77.6558 11.9658 77.5962C12.2474 77.5367 12.5061 77.3896 12.7091 77.1738L21.8408 67.4711V71.4582C21.8432 73.9106 22.7614 76.2618 24.3938 77.9959C26.0262 79.73 28.2395 80.7054 30.548 80.708H69.1301L80.3135 92.5902C80.5164 92.806 80.7751 92.953 81.0568 93.0126C81.3384 93.0722 81.6304 93.0417 81.8957 92.9249C82.161 92.8081 82.3877 92.6103 82.5472 92.3566C82.7066 92.1028 82.7916 91.8045 82.7914 91.4994V80.708C85.0999 80.7054 87.3132 79.73 88.9456 77.9959C90.578 76.2618 91.4962 73.9106 91.4986 71.4582V31.3756C91.4962 28.9232 90.578 26.572 88.9456 24.8379C87.3132 23.1038 85.0999 22.1284 82.7914 22.1258V22.1258ZM23.292 62.2084C22.907 62.2082 22.5377 62.3704 22.2653 62.6593L13.1336 72.362V63.75C13.1336 63.3411 12.9807 62.949 12.7085 62.6599C12.4364 62.3708 12.0672 62.2084 11.6824 62.2084H10.2312C8.69215 62.2065 7.21668 61.5562 6.12844 60.4002C5.0402 59.2441 4.42806 57.6767 4.42634 56.0418V15.9593C4.42806 14.3244 5.0402 12.757 6.12844 11.6009C7.21668 10.4449 8.69215 9.79458 10.2312 9.79274H62.4745C64.0135 9.79458 65.489 10.4449 66.5772 11.6009C67.6655 12.757 68.2776 14.3244 68.2793 15.9593V56.0418C68.2776 57.6767 67.6655 59.2441 66.5772 60.4002C65.489 61.5562 64.0135 62.2065 62.4745 62.2084H23.292ZM88.5962 71.4582C88.5945 73.0931 87.9823 74.6605 86.8941 75.8166C85.8059 76.9726 84.3304 77.6229 82.7914 77.6247H81.3402C80.9553 77.6247 80.5862 77.7871 80.314 78.0763C80.0419 78.3654 79.889 78.7575 79.889 79.1664V87.7783L70.7573 78.0757C70.4848 77.7868 70.1155 77.6246 69.7306 77.6247H30.548C29.009 77.6229 27.5335 76.9726 26.4453 75.8166C25.3571 74.6605 24.7449 73.0931 24.7432 71.4582V65.2916H62.4745C64.7831 65.289 66.9964 64.3137 68.6288 62.5796C70.2612 60.8454 71.1793 58.4942 71.1818 56.0418V25.2091H82.7914C84.3304 25.2109 85.8059 25.8612 86.8941 27.0173C87.9823 28.1733 88.5945 29.7407 88.5962 31.3756V71.4582Z" fill="black"/>
  <path d="M36.3526 39.0838C37.2137 39.0838 38.0554 38.8126 38.7714 38.3044C39.4873 37.7962 40.0453 37.0739 40.3749 36.2288C40.7044 35.3837 40.7906 34.4538 40.6226 33.5566C40.4546 32.6595 40.04 31.8354 39.4311 31.1886C38.8222 30.5418 38.0465 30.1013 37.202 29.9229C36.3575 29.7444 35.4821 29.836 34.6866 30.186C33.8911 30.5361 33.2111 31.1289 32.7327 31.8894C32.2544 32.65 31.999 33.5442 31.999 34.4589C32.0003 35.6851 32.4594 36.8606 33.2756 37.7277C34.0918 38.5947 35.1984 39.0824 36.3526 39.0838ZM36.3526 32.9173C36.6397 32.9173 36.9202 33.0077 37.1589 33.1771C37.3975 33.3465 37.5835 33.5872 37.6934 33.8689C37.8032 34.1506 37.832 34.4606 37.776 34.7597C37.72 35.0587 37.5817 35.3334 37.3788 35.549C37.1758 35.7646 36.9173 35.9114 36.6358 35.9709C36.3542 36.0304 36.0625 35.9999 35.7973 35.8832C35.5321 35.7665 35.3055 35.5689 35.146 35.3154C34.9865 35.0619 34.9014 34.7638 34.9014 34.4589C34.9019 34.0502 35.0549 33.6583 35.327 33.3693C35.599 33.0803 35.9679 32.9177 36.3526 32.9173Z" fill="black"/>
  <path d="M21.8409 39.0838C22.702 39.0838 23.5437 38.8126 24.2597 38.3044C24.9756 37.7962 25.5336 37.0739 25.8631 36.2288C26.1926 35.3837 26.2789 34.4538 26.1109 33.5566C25.9429 32.6595 25.5282 31.8354 24.9194 31.1886C24.3105 30.5418 23.5348 30.1013 22.6903 29.9229C21.8457 29.7444 20.9704 29.836 20.1749 30.186C19.3793 30.5361 18.6994 31.1289 18.221 31.8894C17.7426 32.65 17.4873 33.5442 17.4873 34.4589C17.4886 35.6851 17.9477 36.8606 18.7639 37.7277C19.5801 38.5947 20.6867 39.0824 21.8409 39.0838ZM21.8409 32.9173C22.1279 32.9173 22.4085 33.0077 22.6472 33.1771C22.8858 33.3465 23.0718 33.5872 23.1817 33.8689C23.2915 34.1506 23.3202 34.4606 23.2642 34.7597C23.2082 35.0587 23.07 35.3334 22.8671 35.549C22.6641 35.7646 22.4055 35.9114 22.124 35.9709C21.8425 36.0304 21.5507 35.9999 21.2856 35.8832C21.0204 35.7665 20.7937 35.5689 20.6343 35.3154C20.4748 35.0619 20.3897 34.7638 20.3897 34.4589C20.3901 34.0502 20.5432 33.6583 20.8152 33.3693C21.0873 33.0803 21.4562 32.9177 21.8409 32.9173Z" fill="black"/>
  <path d="M50.8648 39.0838C51.7259 39.0838 52.5676 38.8126 53.2836 38.3044C53.9995 37.7962 54.5575 37.0739 54.8871 36.2288C55.2166 35.3837 55.3028 34.4538 55.1348 33.5566C54.9668 32.6595 54.5522 31.8354 53.9433 31.1886C53.3345 30.5418 52.5587 30.1013 51.7142 29.9229C50.8697 29.7444 49.9943 29.836 49.1988 30.186C48.4033 30.5361 47.7233 31.1289 47.2449 31.8894C46.7666 32.65 46.5112 33.5442 46.5112 34.4589C46.5125 35.6851 46.9716 36.8606 47.7878 37.7277C48.604 38.5947 49.7106 39.0824 50.8648 39.0838ZM50.8648 32.9173C51.1519 32.9173 51.4324 33.0077 51.6711 33.1771C51.9097 33.3465 52.0957 33.5872 52.2056 33.8689C52.3154 34.1506 52.3442 34.4606 52.2882 34.7597C52.2322 35.0587 52.094 35.3334 51.891 35.549C51.6881 35.7646 51.4295 35.9114 51.148 35.9709C50.8665 36.0304 50.5747 35.9999 50.3095 35.8832C50.0443 35.7665 49.8177 35.5689 49.6582 35.3154C49.4988 35.0619 49.4136 34.7638 49.4136 34.4589C49.4141 34.0502 49.5671 33.6583 49.8392 33.3693C50.1112 33.0803 50.4801 32.9177 50.8648 32.9173Z" fill="black"/>
  </svg>