<svg width="90" height="90" viewBox="0 0 90 90" fill="none" xmlns="http://www.w3.org/2000/svg">
<path d="M45 0.251465C36.1496 0.251465 27.4979 2.87592 20.139 7.79294C12.7802 12.71 7.04467 19.6987 3.65776 27.8754C0.270854 36.0522 -0.615316 45.0496 1.11131 53.7299C2.83794 62.4103 7.09983 70.3837 13.358 76.6419C19.6162 82.9001 27.5896 87.162 36.27 88.8886C44.9503 90.6152 53.9478 89.7291 62.1245 86.3422C70.3012 82.9553 77.29 77.2197 82.207 69.8609C87.124 62.502 89.7485 53.8504 89.7485 45C89.7351 33.136 85.0162 21.7618 76.6272 13.3728C68.2381 4.98369 56.8639 0.264839 45 0.251465V0.251465ZM45 87.0688C36.6795 87.0688 28.546 84.6015 21.6278 79.9789C14.7096 75.3563 9.31756 68.7861 6.13347 61.099C2.94938 53.4119 2.11628 44.9533 3.73951 36.7927C5.36275 28.6322 9.36941 21.1362 15.2528 15.2528C21.1363 9.36939 28.6322 5.36273 36.7928 3.73949C44.9533 2.11626 53.4119 2.94936 61.099 6.13345C68.7861 9.31754 75.3563 14.7096 79.9789 21.6278C84.6015 28.546 87.0688 36.6795 87.0688 45C87.0562 56.1534 82.6199 66.8465 74.7332 74.7332C66.8465 82.6199 56.1535 87.0562 45 87.0688V87.0688Z" fill="black"/>
<path d="M68.1753 31.0909L53.055 37.3522V33.3074C53.054 32.3432 52.6705 31.4187 51.9887 30.7369C51.3069 30.0551 50.3825 29.6717 49.4183 29.6707H20.4355C19.4713 29.6717 18.5469 30.0551 17.8651 30.7369C17.1833 31.4187 16.7998 32.3432 16.7988 33.3074V56.6926C16.7998 57.6568 17.1833 58.5813 17.8651 59.2631C18.5469 59.9449 19.4713 60.3283 20.4355 60.3293H49.4183C50.3825 60.3283 51.3069 59.9449 51.9887 59.2631C52.6705 58.5813 53.054 57.6568 53.055 56.6926V52.6478L68.173 58.9076C68.7251 59.1378 69.3255 59.228 69.9208 59.1701C70.5161 59.1122 71.0879 58.908 71.5852 58.5757C72.0826 58.2434 72.49 57.7933 72.7714 57.2655C73.0527 56.7376 73.1992 56.1484 73.1978 55.5503V34.4497C73.1982 33.8521 73.0511 33.2637 72.7697 32.7366C72.4883 32.2094 72.0812 31.7598 71.5845 31.4277C71.0877 31.0955 70.5167 30.891 69.9221 30.8322C69.3274 30.7735 68.7274 30.8623 68.1753 31.0909V31.0909ZM49.4175 57.6497H20.4355C20.1818 57.6495 19.9385 57.5486 19.759 57.3691C19.5796 57.1897 19.4787 56.9464 19.4785 56.6926V33.3074C19.4787 33.0536 19.5796 32.8103 19.759 32.6309C19.9385 32.4514 20.1818 32.3505 20.4355 32.3503H49.4183C49.672 32.3505 49.9153 32.4514 50.0948 32.6309C50.2742 32.8103 50.3751 33.0536 50.3753 33.3074V56.6926C50.3751 56.9464 50.2742 57.1897 50.0948 57.3691C49.9153 57.5486 49.672 57.6495 49.4183 57.6497H49.4175ZM70.5181 55.5503C70.5188 55.7073 70.4807 55.8621 70.4071 56.0008C70.3334 56.1395 70.2266 56.2578 70.0962 56.3452C69.9657 56.4326 69.8157 56.4864 69.6594 56.5017C69.5031 56.517 69.3455 56.4935 69.2005 56.4331L53.055 49.7469V40.2531L69.2036 33.5662C69.3484 33.5064 69.5058 33.4833 69.6617 33.499C69.8176 33.5147 69.9673 33.5686 70.0973 33.6561C70.2274 33.7435 70.3339 33.8617 70.4073 34.0001C70.4807 34.1385 70.5188 34.293 70.5181 34.4497V55.5503Z" fill="black"/>
</svg>
